<svg xmlns="http://www.w3.org/2000/svg" width="2000" height="2000" style="shape-rendering:geometricPrecision;text-rendering:geometricPrecision;image-rendering:optimizeQuality;fill-rule:evenodd;clip-rule:evenodd">
    <path style="opacity:1" fill="#fa6518" d="M-.5-.5h2000v2000H-.5V-.5Z"/>
    <path style="opacity:1" fill="#f4671f" d="M1055.5 436.5c21.32.778 42.66 1.111 64 1v3h-96v-3c10.85.328 21.51-.006 32-1Z"/>
    <path style="opacity:1" fill="#f16f2d" d="M1027.5 444.5c-1.33.667-2.67 1.333-4 2-5.53-.321-10.86.012-16 1h-8v-3c2.44-.256 4.77-.923 7-2 6.97.79 13.97 1.457 21 2Z"/>
    <path style="opacity:1" fill="#f79b6d" d="M1027.5 444.5h68v1c-24.02-.25-48.02.084-72 1 1.33-.667 2.67-1.333 4-2Z"/>
    <path style="opacity:1" fill="#f1793b" d="M1095.5 445.5v-1c10.67-.167 21.34 0 32 .5 3.18-.053 5.84.78 8 2.5h-16c-7.77-1.655-15.77-2.322-24-2Z"/>
    <path style="opacity:1" fill="#ffc8af" d="m1095.5 445.5 8 2c-32-1.21-64-1.21-96 0 5.14-.988 10.47-1.321 16-1 23.98-.916 47.98-1.25 72-1Z"/>
    <path style="opacity:1" fill="#fbb684" d="M1095.5 445.5c8.23-.322 16.23.345 24 2h-16l-8-2Z"/>
    <path style="opacity:1" fill="#fefefe" d="M1103.5 447.5h16c7.6 1.967 15.6 2.634 24 2 2.89-.306 5.55.027 8 1 5.39.642 10.73 1.642 16 3 14.02 3.339 28.35 5.672 43 7h5a68.222 68.222 0 0 0 16 2v1a33.918 33.918 0 0 1 6 4.5 177.913 177.913 0 0 0 26 4.5 364.744 364.744 0 0 0 28 7c3.32.988 6.65 1.988 10 3 .11.617.44 1.117 1 1.5 6.37 1.772 12.7 3.606 19 5.5 1.6 1.574 3.6 2.241 6 2 .34.838 1.01 1.172 2 1 1.16 1.75 2.83 2.75 5 3 .54 1.617.87 3.284 1 5 3.73.295 7.39.961 11 2 8.5 2.759 16.83 5.759 25 9h4v4h5v3c3.41 1.868 7.08 3.535 11 5 1.9.966 3.9 1.299 6 1 .55 2.584 2.21 3.584 5 3-.17 1.322.16 2.489 1 3.5a44.679 44.679 0 0 0 9 2.5h5c.96 2.82 2.96 4.153 6 4v1c1.4 1.39 3.07 2.39 5 3 .03.997-.47 1.664-1.5 2-1.16-.687-2.33-.853-3.5-.5a41.31 41.31 0 0 1 4 6.5 18.058 18.058 0 0 0-4 4.5c1.2 1.368 2.2 2.868 3 4.5a2830.802 2830.802 0 0 0-.5 130c.41-.457.91-.791 1.5-1 .93-47.058 1.26-94.058 1-141h4c-.34 3.12.32 5.953 2 8.5a11.245 11.245 0 0 1-2 4c.67 43 1.33 86 2 129-1.66 1.444-2.32 3.278-2 5.5h-2c-1.87-2.104-4.21-3.437-7-4 0-1.333-.67-2-2-2-.33-2.333-1.67-3.667-4-4-1.41-2.414-3.41-4.081-6-5l-4-1v-1c-1.98-1.637-3.98-3.304-6-5-1.99-3.953-5.33-5.953-10-6v-1c-2.13-2.45-4.8-4.117-8-5v-1c-.07-3.067-1.4-5.4-4-7-6.34-.516-11.34-3.35-15-8.5a12.92 12.92 0 0 0-5-.5c-3.05-.072-5.72-1.072-8-3-2.08-2.373-4.75-3.706-8-4-2.65-4.648-6.65-7.314-12-8v-3l-8-1h-2c-1.95-4.253-5.28-5.92-10-5v-1a82.462 82.462 0 0 0-16-6v-2c-1.6-1.574-3.6-2.241-6-2h-2c-2.11-2.271-4.78-3.604-8-4-3.42-.962-6.59-2.628-9.5-5-2.1-.787-4.27-1.12-6.5-1-.71-.904-1.71-1.237-3-1a52.882 52.882 0 0 0-11-5h-2v-1c-4.81-2.536-10.14-3.87-16-4v-1l-5-2c-1.4-1.431-3.07-2.598-5-3.5a232.848 232.848 0 0 1-26-4.5h-12v-2c-.47-1.193-1.47-1.86-3-2a234.81 234.81 0 0 1-21-4.5c-7.99-.73-15.99-1.23-24-1.5h-11c-1.45-.802-3.12-1.302-5-1.5-21.33-.5-42.66-.667-64-.5-12.67.349-25.34.849-38 1.5-3.59.311-6.92 1.144-10 2.5a773.226 773.226 0 0 0-32 4c-4.335.417-8.668.917-13 1.5-1.619.236-2.619 1.069-3 2.5a116.945 116.945 0 0 1-16 3c-5.96-.003-11.293 1.664-16 5a47.356 47.356 0 0 0-16 2.5c-2.247 1.277-4.247 2.777-6 4.5v1c-3.616.814-6.949 2.148-10 4-3.421.018-6.088 1.351-8 4h-1c-2.51.427-4.843 1.093-7 2-6.81.071-12.144 2.738-16 8v1c-3.053.072-5.719 1.072-8 3-2.668-.166-5.002-1.166-7-3a13.116 13.116 0 0 0-1 7 12.93 12.93 0 0 0-5 .5c-2.197 2.614-4.697 4.78-7.5 6.5a4.934 4.934 0 0 0-.5 3c-1.679-.215-2.679.452-3 2v1c-3.565.91-6.232 2.91-8 6-1.73.526-3.064 1.526-4 3h-4c-.816 2.607-2.483 4.607-5 6a38.355 38.355 0 0 1-11 5v5c-5.394 4.392-10.061 9.392-14 15-.342.838-1.008 1.172-2 1-4.601-.066-6.934 2.267-7 7-3.854 1.881-5.854 4.881-6 9a35.23 35.23 0 0 0-6 8c-3.182 1.693-4.848 4.359-5 8h-3c-.204 2.185-.87 4.185-2 6-.596 2.245-1.596 4.245-3 6-1.946.535-2.946 1.868-3 4a278.54 278.54 0 0 0-12.5 20 8.43 8.43 0 0 0-.5 4c-2.637 1.982-3.97 4.648-4 8h-1a269.57 269.57 0 0 0-11 25v4c.215 1.679-.452 2.679-2 3-1.424 2.015-2.09 4.348-2 7-2.355 2.423-3.355 5.423-3 9-.934 1.068-1.268 2.401-1 4-2.548 3.496-3.881 7.496-4 12h-1c-1.575 4.09-2.575 8.423-3 13v3l-2 2c-.794-2.652-1.46-2.485-2 .5a59.73 59.73 0 0 0-1 13.5 53.756 53.756 0 0 0-2 16c-1.248.834-1.915 2.167-2 4a73.058 73.058 0 0 0-1 12c-2.568 4.91-3.568 10.243-3 16-1.76 5.053-2.427 10.386-2 16-.988 5.14-1.321 10.474-1 16-1.306 5.116-1.973 10.449-2 16v6a508.927 508.927 0 0 0-2 50c0 10.84.333 21.51 1 32v2c-.687 12.96.313 25.63 3 38v8c.466 5.99.799 11.99 1 18a184.88 184.88 0 0 0 4 35.5c-3.459 7.01-3.792 14.18-1 21.5a61.13 61.13 0 0 0-1 13h4c-.654-7.66-.821-15.33-.5-23a191.851 191.851 0 0 1 4.5 16 600.54 600.54 0 0 0 2 13 7.248 7.248 0 0 1 2.5 2c.182 2.73.682 5.39 1.5 8 .501 2.16 1.501 3.82 3 5 1.36 5.34 2.36 10.84 3 16.5a24.963 24.963 0 0 0 4 5.5c-3.251 5.82-1.584 9.82 5 12l2 9c.553 4.49 2.386 8.82 5.5 13 .293 6.6 3.127 11.6 8.5 15 1.357 1.09 2.357 2.42 3 4a22.639 22.639 0 0 0 4 5c.187 2.06.687 4.06 1.5 6a48.41 48.41 0 0 0 7.5 11c2.366 3.36 4.699 6.69 7 10-.96 4.69.707 8.03 5 10a6.97 6.97 0 0 0 4 2c.025 2.68 1.358 4.01 4 4 1.182 3.52 3.182 6.52 6 9a44.56 44.56 0 0 0 6 7c1.017 2.41 2.684 4.08 5 5a6.575 6.575 0 0 1 3 3c1.667 3.67 4.333 6.33 8 8 0 1.33.667 2 2 2 2.069 3.07 4.736 5.41 8 7 1.411 2.41 3.411 4.08 6 5v2c-.219 1.18.114 2.18 1 3a39.328 39.328 0 0 0 10 5c1.32 1.44 2.986 2.11 5 2v1c2.606 1.62 4.606 3.95 6 7a28.364 28.364 0 0 0 10 3 22.784 22.784 0 0 1 5 4c1.815 2.91 4.481 4.24 8 4h3v3h4c3.006 2.93 6.506 5.26 10.5 7a79.282 79.282 0 0 0 17.5 7c2.015 1.42 4.348 2.09 7 2h1c1.839 2.63 4.506 3.97 8 4 5.429 1.73 10.762 3.4 16 5 .514 1.94 1.847 2.94 4 3a45.62 45.62 0 0 0 12 1c2.788 2.48 6.122 3.48 10 3 2.235-.29 4.235.04 6 1 4.921 2.45 10.255 3.45 16 3v1c5.07 1.73 10.403 2.73 16 3 2.523.88 5.19 1.72 8 2.5l24 1.5a285.4 285.4 0 0 0 24 2h56c8.67.17 17.34 0 26-.5 2.21-.19 4.21-.69 6-1.5 5.16-.96 10.49-1.63 16-2 5.47.25 10.8-.41 16-2 5.6.34 10.93-.32 16-2 10.01-.55 20.01-1.22 30-2 .03-1.7.69-3.03 2-4 7.67-1.05 15.33-2.22 23-3.5.5-1.16 1.33-1.99 2.5-2.5 2.35-.49 4.51-1.16 6.5-2v-1c4.93-.31 9.26-1.97 13-5 2.52-1.14 5.19-1.81 8-2 4.14-.28 7.81-1.61 11-4v-1c4.05-.01 7.39-1.34 10-4 3.28-.92 6.61-1.76 10-2.5 2.12-1.05 3.78-2.55 5-4.5 2.83-.58 5.16-1.91 7-4 3.52.24 6.19-1.09 8-4 1.88.27 3.21-.4 4-2 1.33-95.67 1.33-191.33 0-287 .08-1.75-.75-2.75-2.5-3-77.8 1-155.64 1.33-233.5 1v-113c123-.302 245.67-1.302 368-3h2c.02 148.97.02 297.97 0 447-1.66 2.18-1.33 4.01 1 5.5-.71 2.83-1.38 5.66-2 8.5-.33 1.33-.67 2.67-1 4-3.28 1.61-5.95 3.95-8 7h-2c-2.28.95-4.28 2.28-6 4a60.148 60.148 0 0 0-11 7v1c-4.12.9-7.79 2.57-11 5-2.89 1.29-5.22 3.29-7 6h-3c-4.02 2.04-8.02 4.04-12 6-2.36-.16-4.69 0-7 .5-2.95 3.27-6.61 5.27-11 6-1.32.82-1.99 1.98-2 3.5-4.78 2.72-9.45 5.38-14 8-6.57 1.62-12.57 4.29-18 8h-3c-2.17.25-3.84 1.25-5 3-3-.21-5.66.46-8 2-3.44-.2-6.77.3-10 1.5a137 137 0 0 0-13 6.5c-.81 1.23-1.81 2.23-3 3h-1c-1.91-.28-3.58.05-5 1-2.69-.16-5.35 0-8 .5-1.82.66-3.16 1.83-4 3.5-1.98-.34-3.32.32-4 2-5.45.37-10.79 1.37-16 3-7.33.45-14.66.95-22 1.5-2.95.11-4.28 1.61-4 4.5-2.58-.47-4.58.19-6 2-1.07.93-2.4 1.27-4 1a349.88 349.88 0 0 0-28 5c-9.43 1.13-18.93 2.13-28.5 3-1.68.11-2.85.77-3.5 2-6.46.4-12.79-.27-19-2-3.65.16-6.32 1.82-8 5h-5c-42.66.9-85.33 1.24-128 1-3.46-.98-7.13-1.31-11-1h-10c-.111-.62-.444-1.12-1-1.5-6.023-.36-12.023-.86-18-1.5a177.722 177.722 0 0 0-20-3c-1.1-1.06-2.434-1.89-4-2.5a176.366 176.366 0 0 0-32-4.5h-3c-2.015-1.42-4.348-2.09-7-2a19.307 19.307 0 0 0-6-1h-5c-.333-.67-.667-1.33-1-2-8.255-3.52-16.922-5.86-26-7-.709-.9-1.709-1.24-3-1-1.956-.99-3.956-1.99-6-3a73.102 73.102 0 0 1-11-3h-3c-4.06-4.04-9.06-6.37-15-7-2.391-3.42-5.725-4.75-10-4v-1c-2.397-1.69-5.063-3.03-8-4-3.078-.12-5.745-1.12-8-3-.667-.67-1.333-1.33-2-2-1.783-3-4.45-4.83-8-5.5a13.248 13.248 0 0 1-3-5c-3.24.27-6.573.1-10-.5h-1v-3c-2.667-.33-5.333-.67-8-1a18.462 18.462 0 0 0-6-4 32.692 32.692 0 0 1-7-3c-1.779-1.17-2.779-2.84-3-5h-4a12.04 12.04 0 0 0-4-3c-1.693-3.18-4.359-4.85-8-5-1.55-2.12-3.55-3.79-6-5h-2c-1.405-3.74-4.071-6.07-8-7v-3h-4c-1.411-2.41-3.411-4.08-6-5-1.208-2.54-3.208-3.88-6-4 .237-1.29-.096-2.29-1-3-1.739-2.74-4.073-4.74-7-6a18.623 18.623 0 0 1-3-5c.209-.59.543-1.09 1-1.5a8.394 8.394 0 0 0-4-.5h-2v-1c.086-1-.248-1.83-1-2.5a43.842 43.842 0 0 0-7-4.5 19.738 19.738 0 0 0-3.5-4 8.43 8.43 0 0 1-.5-4h-4c-1-1.67-2.333-3-4-4-.333-2.33-1.667-3.67-4-4-.919-2.59-2.586-4.59-5-6-.722-1.05-1.722-1.72-3-2 .227-2.43-.773-4.1-3-5a17.982 17.982 0 0 0-4-6 20.68 20.68 0 0 1-1-5h-4c-1.238-3.24-3.238-5.9-6-8-.207-3.67-1.874-6.34-5-8v-4h-3a23.102 23.102 0 0 1-2-8h-4v-4h-3c-2.305-3.58-3.638-7.58-4-12h-3v-1a99.899 99.899 0 0 1-1.5-8c-2.956-2.22-5.79-4.56-8.5-7-.16-1.65-.826-2.99-2-4-1.645-5.29-4.311-9.96-8-14-.977-2.99-2.311-5.66-4-8-.767-3.65-2.1-6.98-4-10 .591-4.46-.742-8.13-4-11-.667-.33-1.333-.67-2-1 .268-1.6-.066-2.93-1-4 .469-2.89-.531-4.89-3-6v-2a24.104 24.104 0 0 1-3-8 8.43 8.43 0 0 0-.5-4c-.876-2.26-2.043-4.26-3.5-6l-2-6c.187-5.54 1.187-10.87 3-16h-3c.299 2.1-.034 4.1-1 6-2.6-3.22-2.6-6.55 0-10-.833-1.67-1.667-3.33-2.5-5-1.011-.84-2.178-1.17-3.5-1-.69-4.34-1.523-8.67-2.5-13-.728-2.69-1.895-5.02-3.5-7-.56-2.3-1.06-4.63-1.5-7-.383-.56-.883-.89-1.5-1v-4c.241-2.4-.426-4.4-2-6 .293-9.25-1.373-17.92-5-26v-6a943.45 943.45 0 0 1-5-51c.836-10.69 1.836-21.35 3-32-.47-4.36-1.136-8.7-2-13a46.874 46.874 0 0 0 0 18.5l-2 11c-.184 1.38-.851 2.21-2 2.5a5099.468 5099.468 0 0 1-1-128 216.926 216.926 0 0 0 1-24c.722-.418 1.222-1.084 1.5-2 .499-5.991.666-11.991.5-18-.268-1.599.066-2.932 1-4h3a183.908 183.908 0 0 1 2-32v-3h3a954.483 954.483 0 0 1 5-32c.196-1.786 1.029-3.119 2.5-4l1-8c1.569-1.214 2.402-2.881 2.5-5l2-18c1.758-1.641 3.258-3.641 4.5-6a371.875 371.875 0 0 1 4.5-20 195.343 195.343 0 0 1 4-13v-3c1.37-1.75 2.37-3.75 3-6v-3c.958-.453 1.792-1.119 2.5-2a64.556 64.556 0 0 1 3.5-11 139.96 139.96 0 0 0 10-20v-1c1.632-.325 2.632-1.325 3-3a55.03 55.03 0 0 1 3-10c1-.333 1.667-1 2-2 1.745-1.533 2.745-3.533 3-6 .667 0 1-.333 1-1 2.746-1.913 5.246-4.246 7.5-7a18.991 18.991 0 0 0 1.5-8c1.908-.986 2.908-2.652 3-5a7.47 7.47 0 0 0 3-2 917.708 917.708 0 0 0 4-9c.838-.342 1.172-1.008 1-2a11.105 11.105 0 0 0 4.5-3 132.375 132.375 0 0 1 5.5-11 66.878 66.878 0 0 1 6-9c2.823-1.492 4.49-3.826 5-7h2c3.674-3.361 6.674-7.361 9-12a80.623 80.623 0 0 0 8-9c3.117-1.282 5.45-3.449 7-6.5 1.525-1.009 3.192-1.509 5-1.5 3.708-6.074 8.708-11.074 15-15a944.205 944.205 0 0 1 4-7 110.458 110.458 0 0 1 9-10c1.904-.238 3.238-1.238 4-3a62.722 62.722 0 0 0 9-6c2.106-1.283 4.44-2.116 7-2.5 2.107-1.264 3.107-3.097 3-5.5l1-2c.992.172 1.658-.162 2-1a892.751 892.751 0 0 0 6-4v-1c3.114-.055 5.448-1.388 7-4 .473-1.406 1.473-2.073 3-2 2.466-.798 4.466-2.131 6-4a946.477 946.477 0 0 0 8-4 8.43 8.43 0 0 0 4-.5 205.283 205.283 0 0 0 14-9 18.453 18.453 0 0 1 6-.5v-4a49.995 49.995 0 0 0 10-6l1-2h5a34.033 34.033 0 0 0 8-1.5c2.774-2.261 5.44-4.427 8-6.5 6.609.358 11.942-1.976 16-7 .709-.904 1.709-1.237 3-1 3.566-.292 6.566-1.626 9-4 1.653-.16 2.986-.826 4-2h3a78.837 78.837 0 0 0 13-4 83.828 83.828 0 0 0 20-2.5c2.784-.801 5.117-2.301 7-4.5a115.212 115.212 0 0 1 15-2v-3a232.01 232.01 0 0 1 34-5 163.967 163.967 0 0 0 19 3l1-1a95.558 95.558 0 0 0-13-3.5l1-1c7.567-.09 14.9-.924 22-2.5a845.111 845.111 0 0 1 22-4 40.914 40.914 0 0 0 9-.5c.56-.383.89-.883 1-1.5h6c32-1.21 64-1.21 96 0Z"/>
    <path style="opacity:1" fill="#f4844b" d="M1135.5 447.5h20a11.428 11.428 0 0 0 5 3h-9c-2.45-.973-5.11-1.306-8-1l-8-2Z"/>
    <path style="opacity:1" fill="#f68f5b" d="M991.5 448.5v1a238.102 238.102 0 0 0-32 3c1.805-1.697 4.139-2.53 7-2.5a272.735 272.735 0 0 1 25-1.5Z"/>
    <path style="opacity:1" fill="#f9b69e" d="M999.5 447.5h2c-.11.617-.44 1.117-1 1.5a40.914 40.914 0 0 1-9 .5v-1c2.448-.973 5.115-1.306 8-1Z"/>
    <path style="opacity:1" fill="#fad9c6" d="M1119.5 447.5h16l8 2c-8.4.634-16.4-.033-24-2Z"/>
    <path style="opacity:1" fill="#f56f31" d="M1155.5 447.5c11.01 1.325 22.01 2.825 33 4.5 1.57.608 2.9 1.442 4 2.5h-4a602.132 602.132 0 0 0-28-4 11.428 11.428 0 0 1-5-3Z"/>
    <path style="opacity:1" fill="#fed3ba" d="M991.5 449.5a845.111 845.111 0 0 0-22 4h-10v-1a238.102 238.102 0 0 1 32-3Z"/>
    <path style="opacity:1" fill="#fdc3a2" d="M1151.5 450.5h9a602.132 602.132 0 0 1 28 4l3 2c-8.07-.74-16.07-1.74-24-3a121.832 121.832 0 0 0-16-3Z"/>
    <path style="opacity:1" fill="#f59b6f" d="M959.5 452.5v1l-16 1v-1a118.435 118.435 0 0 1 16-1Z"/>
    <path style="opacity:1" fill="#fef8e8" d="M1167.5 453.5c7.93 1.26 15.93 2.26 24 3 4.03.005 8.03.338 12 1a24.542 24.542 0 0 0 7 3c-14.65-1.328-28.98-3.661-43-7Z"/>
    <path style="opacity:1" fill="#ef9262" d="M1188.5 454.5h4c5.35-.131 10.35.869 15 3h-4a73.388 73.388 0 0 0-12-1l-3-2Z"/>
    <path style="opacity:1" fill="#fef3e6" d="M959.5 453.5h10c-7.1 1.576-14.433 2.41-22 2.5l-1 1a95.558 95.558 0 0 1 13 3.5l-1 1a163.967 163.967 0 0 1-19-3 232.01 232.01 0 0 0-34 5c2.344-.44 4.344-1.44 6-3a203.672 203.672 0 0 1 16-2c5.62-.194 10.953-1.194 16-3v-1l16-1Z"/>
    <path style="opacity:1" fill="#f08450" d="M943.5 453.5v2c-5.642-.004-10.975.996-16 3a203.672 203.672 0 0 0-16 2c10.261-3.605 20.928-5.939 32-7Z"/>
    <path style="opacity:1" fill="#fec5ae" d="M943.5 455.5c-5.047 1.806-10.38 2.806-16 3 5.025-2.004 10.358-3.004 16-3Z"/>
    <path style="opacity:1" fill="#f9caa1" d="M1203.5 457.5h4l8 2v1h-5a24.542 24.542 0 0 1-7-3Z"/>
    <path style="opacity:1" fill="#ef965f" d="M911.5 460.5c-1.656 1.56-3.656 2.56-6 3h-4c2.692-2.642 6.025-3.642 10-3Z"/>
    <path style="opacity:1" fill="#f9a17a" d="M1215.5 460.5v-1c5.69-.26 11.03.74 16 3a68.222 68.222 0 0 1-16-2Z"/>
    <path style="opacity:1" fill="#e0a58b" d="M901.5 463.5c-1.802.958-3.802 1.625-6 2 1.418-1.808 3.418-2.475 6-2Z"/>
    <path style="opacity:1" fill="#f18e5f" d="M1236.5 463.5c5.82 1.397 11.82 2.231 18 2.5a1569.7 1569.7 0 0 0 17 6.5l-8-1a162.859 162.859 0 0 1-27-8Z"/>
    <path style="opacity:1" fill="#f59061" d="M895.5 465.5a292.68 292.68 0 0 1-32 8c10.038-4.574 20.705-7.24 32-8Z"/>
    <path style="opacity:1" fill="#fdf1e1" d="M1231.5 463.5h5a162.859 162.859 0 0 0 27 8v1a177.913 177.913 0 0 1-26-4.5 33.918 33.918 0 0 0-6-4.5Z"/>
    <path style="opacity:1" fill="#fdf3e3" d="M901.5 463.5h4v3a115.212 115.212 0 0 0-15 2c-1.883 2.199-4.216 3.699-7 4.5a83.828 83.828 0 0 1-20 2.5v-2a292.68 292.68 0 0 0 32-8c2.198-.375 4.198-1.042 6-2Z"/>
    <path style="opacity:1" fill="#f07c43" d="M863.5 473.5v1c-4.921.436-9.254 2.103-13 5h-3v-3a52.252 52.252 0 0 1 16-3Z"/>
    <path style="opacity:1" fill="#fab790" d="M1263.5 472.5v-1l8 1c6.27 1.985 12.6 3.818 19 5.5.56.383.89.883 1 1.5a364.744 364.744 0 0 1-28-7Z"/>
    <path style="opacity:1" fill="#fecca7" d="M863.5 474.5v1a78.837 78.837 0 0 1-13 4c3.746-2.897 8.079-4.564 13-5Z"/>
    <path style="opacity:1" fill="#f17e46" d="M847.5 479.5c-1.014 1.174-2.347 1.84-4 2-2.827.084-5.494.75-8 2 3.187-3.425 7.187-4.759 12-4Z"/>
    <path style="opacity:1" fill="#febe9d" d="M843.5 481.5c-2.434 2.374-5.434 3.708-9 4v-1c0-.667.333-1 1-1a18.974 18.974 0 0 1 8-2Z"/>
    <path style="opacity:1" fill="#f5a276" d="M1301.5 482.5a66.114 66.114 0 0 0 14 3.5c2.38.716 4.38 1.883 6 3.5a954.388 954.388 0 0 0-19-5.5c-.56-.383-.89-.883-1-1.5Z"/>
    <path style="opacity:1" fill="#f48b57" d="M834.5 484.5v1c-1.291-.237-2.291.096-3 1a109.685 109.685 0 0 0-13 5c4.35-4.507 9.683-6.84 16-7Z"/>
    <path style="opacity:1" fill="#ffe5cf" d="M831.5 486.5c-4.058 5.024-9.391 7.358-16 7 .321-1.548 1.321-2.215 3-2a109.685 109.685 0 0 1 13-5Z"/>
    <path style="opacity:1" fill="#f09865" d="M1321.5 489.5c2.58-.475 4.58.192 6 2-2.4.241-4.4-.426-6-2Z"/>
    <path style="opacity:1" fill="#f8af83" d="M1329.5 492.5c2.81-.475 4.81.525 6 3h-1c-2.17-.25-3.84-1.25-5-3Z"/>
    <path style="opacity:1" fill="#e58b4b" d="M1339.5 495.5c1.98-.343 3.32.324 4 2-1.98.343-3.32-.324-4-2Z"/>
    <path style="opacity:1" fill="#f28542" d="m805.5 495.5-3 4c-1.679-.215-2.679.452-3 2h-3v-3c3.243-.414 6.243-1.414 9-3Z"/>
    <path style="opacity:1" fill="#f8b18c" d="M805.5 495.5h2c-1.039 2.031-2.705 3.364-5 4l3-4Z"/>
    <path style="opacity:1" fill="#fdead6" d="M815.5 493.5c-2.56 2.073-5.226 4.239-8 6.5a34.033 34.033 0 0 1-8 1.5c.321-1.548 1.321-2.215 3-2 2.295-.636 3.961-1.969 5-4 2.83-.194 5.496-.861 8-2Z"/>
    <path style="opacity:1" fill="#feecdb" d="M1334.5 495.5h5c.68 1.676 2.02 2.343 4 2v1c2.26 1.88 4.92 2.88 8 3 .11.617.44 1.117 1 1.5 4.34 1.282 8.67 2.449 13 3.5.67.667 1.33 1.333 2 2 1.58.643 2.91 1.643 4 3a416.408 416.408 0 0 0-25-9 55.441 55.441 0 0 0-11-2 20.643 20.643 0 0 0-1-5Z"/>
    <path style="opacity:1" fill="#f19971" d="M1343.5 498.5c3.44-.672 6.11.328 8 3-3.08-.12-5.74-1.12-8-3Z"/>
    <path style="opacity:1" fill="#f18147" d="m1351.5 501.5 12 1.5a18.311 18.311 0 0 1 2 3.5 274.089 274.089 0 0 1-13-3.5c-.56-.383-.89-.883-1-1.5Z"/>
    <path style="opacity:1" fill="#fcc7a3" d="M793.5 503.5a49.995 49.995 0 0 1-10 6c-1.105 1.1-2.438 1.767-4 2a179.521 179.521 0 0 1 10-7.5 8.43 8.43 0 0 1 4-.5Z"/>
    <path style="opacity:1" fill="#f49360" d="M1367.5 508.5c2.81-.475 4.81.525 6 3h-2c-1.09-1.357-2.42-2.357-4-3Z"/>
    <path style="opacity:1" fill="#f2753c" d="m794.5 501.5-1 2a8.43 8.43 0 0 0-4 .5 179.521 179.521 0 0 0-10 7.5h-4c-.17-1.322.163-2.489 1-3.5 6.358-1.505 12.358-3.672 18-6.5Z"/>
    <path style="opacity:1" fill="#fee9d8" d="M783.5 509.5v4a18.453 18.453 0 0 0-6 .5 205.283 205.283 0 0 1-14 9 8.43 8.43 0 0 1-4 .5c2.039-2.892 4.706-4.892 8-6v-1c3.641-.152 6.307-1.818 8-5h4c1.562-.233 2.895-.9 4-2Z"/>
    <path style="opacity:1" fill="#ee8348" d="M1375.5 512.5v-1c2.1-.299 4.1.034 6 1 3.95 1.957 7.28 4.624 10 8-5.35-2.701-10.69-5.368-16-8Z"/>
    <path style="opacity:1" fill="#ec8d61" d="M775.5 511.5c-1.693 3.182-4.359 4.848-8 5 1.088-1.5 2.421-2.833 4-4 1.189-.929 2.522-1.262 4-1Z"/>
    <path style="opacity:1" fill="#ffedd9" d="M1375.5 512.5c5.31 2.632 10.65 5.299 16 8a38.123 38.123 0 0 1 6 4c-2.1.299-4.1-.034-6-1-3.92-1.465-7.59-3.132-11-5v-3h-5v-3Z"/>
    <path style="opacity:1" fill="#f19867" d="M767.5 517.5c-3.294 1.108-5.961 3.108-8 6a946.477 946.477 0 0 1-8 4v-3a8.43 8.43 0 0 0 4-.5 74.49 74.49 0 0 0 7-6 12.93 12.93 0 0 1 5-.5Z"/>
    <path style="opacity:1" fill="#ef7a39" d="M1391.5 520.5c3.66.587 7.16 1.587 10.5 3 2.26-.11 3.92-1.11 5-3 .12 2.436-.38 4.769-1.5 7-2.28-1.928-4.95-2.928-8-3a38.123 38.123 0 0 0-6-4Z"/>
    <path style="opacity:1" fill="#f5b793" d="M751.5 527.5c-1.534 1.869-3.534 3.202-6 4 .978-2.825 2.978-4.158 6-4Z"/>
    <path style="opacity:1" fill="#fce6ce" d="M1397.5 524.5c3.05.072 5.72 1.072 8 3 1.33.667 2.67 1.333 4 2l3 4a44.679 44.679 0 0 1-9-2.5c-.84-1.011-1.17-2.178-1-3.5-2.79.584-4.45-.416-5-3Z"/>
    <path style="opacity:1" fill="#fcaf91" d="M1409.5 529.5c2.28.949 4.28 2.282 6 4h-3l-3-4Z"/>
    <path style="opacity:1" fill="#f29166" d="M1417.5 533.5c2.47.798 4.47 2.131 6 4-3.04.153-5.04-1.18-6-4Z"/>
    <path style="opacity:1" fill="#f5a685" d="M742.5 533.5c-1.552 2.612-3.886 3.945-7 4 1.954-1.77 4.287-3.103 7-4Z"/>
    <path style="opacity:1" fill="#f9a583" d="M1423.5 538.5c3.52-.241 6.19 1.093 8 4a5.72 5.72 0 0 1-3-1c-1.93-.61-3.6-1.61-5-3Z"/>
    <path style="opacity:1" fill="#f39c73" d="M735.5 538.5a892.751 892.751 0 0 1-6 4c.892-2.792 2.892-4.125 6-4Z"/>
    <path style="opacity:1" fill="#ec8c59" d="m727.5 543.5-1 2-4 2c.287-2.984 1.954-4.317 5-4Z"/>
    <path style="opacity:1" fill="#fde0c8" d="M726.5 545.5c.107 2.403-.893 4.236-3 5.5-2.56.384-4.894 1.217-7 2.5l1-2c1.306-.967 1.973-2.301 2-4h3l4-2Z"/>
    <path style="opacity:1" fill="#f5a274" d="m717.5 551.5-1 2a62.722 62.722 0 0 1-9 6c-.086-.996.248-1.829 1-2.5a242.789 242.789 0 0 0 9-5.5Z"/>
    <path style="opacity:1" fill="#f58061" d="M707.5 559.5c-.762 1.762-2.096 2.762-4 3v-3h4Z"/>
    <path style="opacity:1" fill="#f6fef9" d="M1428.5 541.5c.89.61 1.89.943 3 1 .34.838 1.01 1.172 2 1 .67 1.333 1.33 2.667 2 4 .66 49.345 0 98.345-2 147-.67 0-1-.333-1-1-.32-2.222.34-4.056 2-5.5-.67-43-1.33-86-2-129 .93-1.194 1.6-2.527 2-4-1.68-2.547-2.34-5.38-2-8.5h-4c.26 46.942-.07 93.942-1 141-.59.209-1.09.543-1.5 1-.83-43.375-.66-86.708.5-130-.8-1.632-1.8-3.132-3-4.5a18.058 18.058 0 0 1 4-4.5 41.31 41.31 0 0 0-4-6.5c1.17-.353 2.34-.187 3.5.5 1.03-.336 1.53-1.003 1.5-2Z"/>
    <path style="opacity:1" fill="#fefee8" d="M1435.5 547.5c.67 0 1 .333 1 1v147c-1.29.237-2.29-.096-3-1 2-48.655 2.66-97.655 2-147Z"/>
    <path style="opacity:1" fill="#ffe5cc" d="M1436.5 548.5c.67 24.831 1 49.831 1 75 0 25.342-.67 50.342-2 75a365.46 365.46 0 0 1-4-3c-.33-.667-.67-1.333-1-2h2c0 .667.33 1 1 1 .71.904 1.71 1.237 3 1v-147Z"/>
    <path style="opacity:1" fill="#fab096" d="M1433.5 543.5h3v3h3c.17 50.668 0 101.334-.5 152-1.29 1.291-2.46 1.291-3.5 0 1.33-24.658 2-49.658 2-75 0-25.169-.33-50.169-1-75 0-.667-.33-1-1-1-.67-1.333-1.33-2.667-2-4Z"/>
    <path style="opacity:1" fill="#fee3cd" d="M1055.5 563.5v1c-10.84.274-21.51.94-32 2-5.36-.028-10.7.306-16 1 3.08-1.356 6.41-2.189 10-2.5 12.66-.651 25.33-1.151 38-1.5Z"/>
    <path style="opacity:1" fill="#fec6a8" d="M1055.5 564.5v-1c21.34-.167 42.67 0 64 .5 1.88.198 3.55.698 5 1.5h-5l-32-1h-32Z"/>
    <path style="opacity:1" fill="#f5905a" d="M1055.5 564.5h16c-15.8 1.662-31.8 2.329-48 2a425.116 425.116 0 0 1 32-2Z"/>
    <path style="opacity:1" fill="#fa7b42" d="m1087.5 564.5 32 1v1c-11.05.643-21.72-.024-32-2Z"/>
    <path style="opacity:1" fill="#feb288" d="M1119.5 566.5v-1h16a121.832 121.832 0 0 0 16 3h-8a245.825 245.825 0 0 0-24-2Z"/>
    <path style="opacity:1" fill="#f8661b" d="M1071.5 564.5h16c10.28 1.976 20.95 2.643 32 2 8.04.275 16.04.942 24 2v1h-8v4a268.31 268.31 0 0 0-40 2c-24.1.325-48.1-.342-72-2v-4c-8.68-.036-17.35.297-26 1a1043.71 1043.71 0 0 1 26-4c16.2.329 32.2-.338 48-2Z"/>
    <path style="opacity:1" fill="#f7a880" d="M1023.5 566.5a1043.71 1043.71 0 0 0-26 4 72.367 72.367 0 0 0-12 .5 104.26 104.26 0 0 1-23 4.5 157.586 157.586 0 0 1 13-4 773.226 773.226 0 0 1 32-4c5.3-.694 10.64-1.028 16-1Z"/>
    <path style="opacity:1" fill="#fdefda" d="M1135.5 565.5c8.01.27 16.01.77 24 1.5a234.81 234.81 0 0 0 21 4.5c1.53.14 2.53.807 3 2l-16-1a56.1 56.1 0 0 0-16-4 121.832 121.832 0 0 1-16-3Z"/>
    <path style="opacity:1" fill="#fd8c5f" d="M1143.5 569.5v-1h8a56.1 56.1 0 0 1 16 4 237.78 237.78 0 0 0-24-3Z"/>
    <path style="opacity:1" fill="#f58857" d="m1167.5 572.5 16 1v2c-5.68.201-11.01-.799-16-3Z"/>
    <path style="opacity:1" fill="#f8966a" d="M703.5 562.5a110.458 110.458 0 0 0-9 10 11.743 11.743 0 0 0-5 3c.011-1.517.677-2.684 2-3.5a54.458 54.458 0 0 1 12-9.5Z"/>
    <path style="opacity:1" fill="#fee0c0" d="M975.5 571.5a157.586 157.586 0 0 0-13 4h-3c.381-1.431 1.381-2.264 3-2.5a345.467 345.467 0 0 1 13-1.5Z"/>
    <path style="opacity:1" fill="#fde4ca" d="M694.5 572.5a944.205 944.205 0 0 0-4 7c-6.292 3.926-11.292 8.926-15 15-1.808-.009-3.475.491-5 1.5-1.55 3.051-3.883 5.218-7 6.5v-1a70.905 70.905 0 0 1 10-10c3.811-1.936 6.478-4.936 8-9 2.763-2.357 5.43-4.69 8-7a11.743 11.743 0 0 1 5-3Z"/>
    <path style="opacity:1" fill="#f39262" d="M959.5 575.5c-2.969 1.807-6.302 3.307-10 4.5a263.171 263.171 0 0 1-22 4.5v-1c5.773-.57 11.107-2.236 16-5 5.412-.63 10.745-1.63 16-3Z"/>
    <path style="opacity:1" fill="#f07f48" d="M1187.5 575.5h8c2.43 1.881 5.1 3.215 8 4-4.01.166-8.01-.001-12-.5-1.09-1.55-2.42-2.717-4-3.5Z"/>
    <path style="opacity:1" fill="#feecda" d="M1195.5 575.5a232.848 232.848 0 0 0 26 4.5c1.93.902 3.6 2.069 5 3.5a49.237 49.237 0 0 0-11-2c-2.01-1.424-4.35-2.09-7-2h-5c-2.9-.785-5.57-2.119-8-4Z"/>
    <path style="opacity:1" fill="#fed7bf" d="M943.5 578.5c-4.893 2.764-10.227 4.43-16 5 4.707-3.336 10.04-5.003 16-5Z"/>
    <path style="opacity:1" fill="#fac8a1" d="M1208.5 579.5c2.65-.09 4.99.576 7 2-2.65.09-4.99-.576-7-2Z"/>
    <path style="opacity:1" fill="#f9a177" d="M1206.5 579.5h2c2.01 1.424 4.35 2.09 7 2 3.75.251 7.42.917 11 2l5 2a636.593 636.593 0 0 0-23-3.5c-.88-.708-1.55-1.542-2-2.5Z"/>
    <path style="opacity:1" fill="#fcb890" d="M927.5 584.5v1a24.93 24.93 0 0 0-8 1c.111-.617.444-1.117 1-1.5a24.935 24.935 0 0 1 7-.5Z"/>
    <path style="opacity:1" fill="#ffebd9" d="M927.5 583.5v1a24.935 24.935 0 0 0-7 .5c-.556.383-.889.883-1 1.5-3.042.233-5.708 1.233-8 3a19.22 19.22 0 0 0-6 1c1.753-1.723 3.753-3.223 6-4.5a47.356 47.356 0 0 1 16-2.5Z"/>
    <path style="opacity:1" fill="#ee8c59" d="M1231.5 587.5a18.44 18.44 0 0 1 6 .5c.56.383.89.883 1 1.5-2.51-.427-4.84-1.093-7-2Z"/>
    <path style="opacity:1" fill="#f68757" d="M681.5 582.5c-1.522 4.064-4.189 7.064-8 9a8.43 8.43 0 0 1 .5-4c2.946-1.133 5.446-2.8 7.5-5Z"/>
    <path style="opacity:1" fill="#ef8348" d="M927.5 585.5c-4.797 3.041-10.13 4.374-16 4 2.292-1.767 4.958-2.767 8-3a24.93 24.93 0 0 1 8-1Z"/>
    <path style="opacity:1" fill="#ffd9be" d="M1231.5 587.5v-1c5.86.13 11.19 1.464 16 4a41.799 41.799 0 0 0-9-1c-.11-.617-.44-1.117-1-1.5a18.44 18.44 0 0 0-6-.5Z"/>
    <path style="opacity:1" fill="#ed9b7d" d="M911.5 589.5c-.683 1.676-2.017 2.343-4 2h-2v-1a19.22 19.22 0 0 1 6-1Z"/>
    <path style="opacity:1" fill="#e38559" d="M1238.5 589.5c3.04.008 6.04.341 9 1v1c-3.51.555-6.51-.112-9-2Z"/>
    <path style="opacity:1" fill="#ee793e" d="M1247.5 591.5h2c2.98 2.988 6.65 4.654 11 5 1.29-.237 2.29.096 3 1-4.88.307-9.55-.526-14-2.5-1.47-.71-2.14-1.876-2-3.5Z"/>
    <path style="opacity:1" fill="#f6a67a" d="M1249.5 591.5a52.882 52.882 0 0 1 11 5c-4.35-.346-8.02-2.012-11-5Z"/>
    <path style="opacity:1" fill="#f46e2e" d="M905.5 591.5h2c-.086.996.248 1.829 1 2.5l-2 2c-7.419.77-14.419 2.603-21 5.5l1-2h1a59.89 59.89 0 0 0 8-4c3.051-1.852 6.384-3.186 10-4Z"/>
    <path style="opacity:1" fill="#f6a883" d="M895.5 595.5a59.89 59.89 0 0 1-8 4c1.912-2.649 4.579-3.982 8-4Z"/>
    <path style="opacity:1" fill="#f39c72" d="m886.5 599.5-1 2a19.22 19.22 0 0 0-6 1v-1c2.157-.907 4.49-1.573 7-2Z"/>
    <path style="opacity:1" fill="#f59a75" d="M1263.5 597.5c2.23-.12 4.4.213 6.5 1 2.91 2.372 6.08 4.038 9.5 5-6.05-.367-11.38-2.367-16-6Z"/>
    <path style="opacity:1" fill="#fbe8d1" d="M879.5 601.5v1c-1.014 1.174-2.347 1.84-4 2-2.489-.259-4.156.741-5 3h-1a31.686 31.686 0 0 0-6 2c3.856-5.262 9.19-7.929 16-8Z"/>
    <path style="opacity:1" fill="#eda77e" d="M875.5 604.5c-1.399 1.39-3.066 2.39-5 3 .844-2.259 2.511-3.259 5-3Z"/>
    <path style="opacity:1" fill="#ec9262" d="M1279.5 603.5c3.22.396 5.89 1.729 8 4-3.31-.319-5.97-1.653-8-4Z"/>
    <path style="opacity:1" fill="#efa883" d="M663.5 601.5v1a80.623 80.623 0 0 1-8 9v-4a35.384 35.384 0 0 0 8-6Z"/>
    <path style="opacity:1" fill="#fac5a5" d="M1289.5 607.5c2.4-.241 4.4.426 6 2-2.51.446-4.51-.22-6-2Z"/>
    <path style="opacity:1" fill="#f4a778" d="M869.5 607.5c-1.187 2.475-3.187 3.475-6 3v-1a31.686 31.686 0 0 1 6-2Z"/>
    <path style="opacity:1" fill="#f27f44" d="M1295.5 611.5a82.462 82.462 0 0 1 16 6c-5.3-.928-10.63-1.928-16-3v-3Z"/>
    <path style="opacity:1" fill="#fef2e3" d="M855.5 613.5c-1.765.961-3.765 1.295-6 1-.048 3.135-1.715 4.802-5 5a514.367 514.367 0 0 0-3 4 485.028 485.028 0 0 1-10 6c.321-1.548 1.321-2.215 3-2a4.934 4.934 0 0 1 .5-3c2.803-1.72 5.303-3.886 7.5-6.5a12.93 12.93 0 0 1 5-.5 13.116 13.116 0 0 1 1-7c1.998 1.834 4.332 2.834 7 3Z"/>
    <path style="opacity:1" fill="#fcc4a4" d="M655.5 611.5c-2.326 4.639-5.326 8.639-9 12a101.902 101.902 0 0 1 6.5-11c.671-.752 1.504-1.086 2.5-1Z"/>
    <path style="opacity:1" fill="#fbcdb1" d="M863.5 610.5a452.826 452.826 0 0 0-8 5l-14 8a514.367 514.367 0 0 1 3-4c3.285-.198 4.952-1.865 5-5 2.235.295 4.235-.039 6-1 2.281-1.928 4.947-2.928 8-3Z"/>
    <path style="opacity:1" fill="#eea77d" d="M1311.5 618.5c4.72-.92 8.05.747 10 5-3.3-1.613-6.64-3.28-10-5Z"/>
    <path style="opacity:1" fill="#ffe1c7" d="m1323.5 623.5 8 1v3c-2.98-.826-5.65-2.159-8-4Z"/>
    <path style="opacity:1" fill="#f4a474" d="M644.5 623.5c-.51 3.174-2.177 5.508-5 7v-1a120.655 120.655 0 0 1 5-6Z"/>
    <path style="opacity:1" fill="#f46e2c" d="M855.5 615.5a19.841 19.841 0 0 0-3 5.5c-2.452.29-4.785.956-7 2-3.858 2.924-7.192 6.424-10 10.5-4.936.314-9.269 2.48-13 6.5-.096 1.373.07 2.873.5 4.5-2.564 1.031-5.397 1.031-8.5 0 2.634-.633 4.3-2.3 5-5 .936-1.474 2.27-2.474 4-3 3.004-1.686 5.67-3.686 8-6v-1a485.028 485.028 0 0 0 10-6l14-8Z"/>
    <path style="opacity:1" fill="#f7a575" d="M831.5 630.5c-2.33 2.314-4.996 4.314-8 6 1.768-3.09 4.435-5.09 8-6Z"/>
    <path style="opacity:1" fill="#f8b383" d="M1331.5 627.5c5.35.686 9.35 3.352 12 8-4.79-1.456-8.79-4.123-12-8Z"/>
    <path style="opacity:1" fill="#f28e64" d="M1343.5 635.5c3.25.294 5.92 1.627 8 4-3.31-.319-5.97-1.653-8-4Z"/>
    <path style="opacity:1" fill="#f47331" d="M639.5 629.5v1a66.878 66.878 0 0 0-6 9 78.986 78.986 0 0 0-6.5 8c-.816 1.323-1.983 1.989-3.5 2a30.728 30.728 0 0 0 3-5.5c-.488-1.584-1.488-2.751-3-3.5 1.865-1.166 3.532-.833 5 1l6.5-10c1.11-1.537 2.61-2.203 4.5-2Z"/>
    <path style="opacity:1" fill="#f17c40" d="M1351.5 639.5c2.28 1.928 4.95 2.928 8 3v2c-4.62 1.158-7.28-.508-8-5Z"/>
    <path style="opacity:1" fill="#f79c6e" d="M819.5 639.5c-.7 2.7-2.366 4.367-5 5a70.83 70.83 0 0 1-11 9 50.369 50.369 0 0 1 7-8c2.517-1.393 4.184-3.393 5-6h4Z"/>
    <path style="opacity:1" fill="#fee5cc" d="M810.5 645.5a50.369 50.369 0 0 0-7 8c-1.105 1.1-2.438 1.767-4 2v-5a38.355 38.355 0 0 0 11-5Z"/>
    <path style="opacity:1" fill="#fdd4b7" d="M633.5 639.5a132.375 132.375 0 0 0-5.5 11 11.105 11.105 0 0 1-4.5 3v-4c1.517-.011 2.684-.677 3.5-2a78.986 78.986 0 0 1 6.5-8Z"/>
    <path style="opacity:1" fill="#feeee0" d="M1359.5 642.5c1.7-.16 3.37.006 5 .5 3.66 5.15 8.66 7.984 15 8.5 2.6 1.6 3.93 3.933 4 7a11.737 11.737 0 0 1-5-3h-3c-4.56-4.628-9.9-8.295-16-11v-2Z"/>
    <path style="opacity:1" fill="#f37941" d="M1359.5 644.5c6.1 2.705 11.44 6.372 16 11-2.66.338-4.99-.329-7-2 1.14-.925 1.14-1.759 0-2.5a1099.36 1099.36 0 0 0-9-3.5v-3Z"/>
    <path style="opacity:1" fill="#f07d40" d="M623.5 650.5v3c.172.992-.162 1.658-1 2-3.054 3.085-5.388 6.752-7 11-1.75 1.159-2.75 2.826-3 5h-1c2.673-6.359 5.34-12.692 8-19 1.077-1.205 2.41-1.872 4-2Z"/>
    <path style="opacity:1" fill="#f79f70" d="M1378.5 655.5a11.737 11.737 0 0 0 5 3v1c-2.87.131-4.53-1.203-5-4Z"/>
    <path style="opacity:1" fill="#fcb194" d="M799.5 655.5v3a118.137 118.137 0 0 0-14 12c3.939-5.608 8.606-10.608 14-15Z"/>
    <path style="opacity:1" fill="#fbb594" d="M1383.5 659.5c3.2.883 5.87 2.55 8 5a4.939 4.939 0 0 1-3-.5c-1.9-1.417-3.56-2.917-5-4.5Z"/>
    <path style="opacity:1" fill="#fdddba" d="M622.5 655.5a917.708 917.708 0 0 1-4 9 7.47 7.47 0 0 1-3 2c1.612-4.248 3.946-7.915 7-11Z"/>
    <path style="opacity:1" fill="#f9c8aa" d="M1391.5 665.5c4.67.047 8.01 2.047 10 6-1.48.262-2.81-.071-4-1a126.825 126.825 0 0 1-6-5Z"/>
    <path style="opacity:1" fill="#ffdfb4" d="M615.5 666.5c-.092 2.348-1.092 4.014-3 5 .25-2.174 1.25-3.841 3-5Z"/>
    <path style="opacity:1" fill="#f8a67b" d="M1401.5 671.5c2.02 1.696 4.02 3.363 6 5-3.21-.212-5.21-1.879-6-5Z"/>
    <path style="opacity:1" fill="#f59160" d="M610.5 671.5c.039 2.589-.961 4.589-3 6 .492-2.319 1.492-4.319 3-6Z"/>
    <path style="opacity:1" fill="#f3b489" d="M783.5 673.5c-1.285 1.952-2.951 3.618-5 5 .667-2.667 2.333-4.333 5-5Z"/>
    <path style="opacity:1" fill="#feeeda" d="M610.5 671.5h2a18.991 18.991 0 0 1-1.5 8c-2.254 2.754-4.754 5.087-7.5 7l4-9c2.039-1.411 3.039-3.411 3-6Z"/>
    <path style="opacity:1" fill="#f1864c" d="m1407.5 677.5 4 1c1.33 1.667 2.67 3.333 4 5a43.898 43.898 0 0 0-7-3c-.89-.825-1.22-1.825-1-3Z"/>
    <path style="opacity:1" fill="#ffd6b3" d="M1411.5 678.5c2.59.919 4.59 2.586 6 5h-2c-1.33-1.667-2.67-3.333-4-5Z"/>
    <path style="opacity:1" fill="#fde9ce" d="M783.5 671.5v2c-2.667.667-4.333 2.333-5 5v1c-2.667.667-4.333 2.333-5 5-.356 1.69-1.356 2.69-3 3 .146-4.119 2.146-7.119 6-9 .066-4.733 2.399-7.066 7-7Z"/>
    <path style="opacity:1" fill="#f5af82" d="M778.5 679.5c-1.333 2-3 3.667-5 5 .667-2.667 2.333-4.333 5-5Z"/>
    <path style="opacity:1" fill="#f57134" d="m607.5 677.5-4 9c0 .667-.333 1-1 1-1.879 1.395-2.879 3.395-3 6-.333 1-1 1.667-2 2a10.165 10.165 0 0 1-3 3 180.678 180.678 0 0 1 5-11.5c-1.017-1.049-1.184-2.216-.5-3.5.667-1.333 1.333-1.333 2 0 1.711-2.546 3.877-4.546 6.5-6Z"/>
    <path style="opacity:1" fill="#f4c3a7" d="M1417.5 683.5c2.33.333 3.67 1.667 4 4-1.76-.826-3.1-2.159-4-4Z"/>
    <path style="opacity:1" fill="#f76922" d="M799.5 658.5a72.557 72.557 0 0 0-9 11 21.4 21.4 0 0 1 2.5 7c1.789 1.729 3.956 2.396 6.5 2v9h-9c.667-5.333-1.667-7.667-7-7 .375-3.407-.625-3.907-3-1.5a26.254 26.254 0 0 1-3 7c.35 1.257 1.017 1.591 2 1 2.923-5.839 4.257-5.673 4 .5h-3a50.464 50.464 0 0 1-.5 10c-1.699.906-3.533 1.239-5.5 1v-4c-5.324-1.599-8.491.401-9.5 6-1.129 1.641-2.629 2.641-4.5 3a28.449 28.449 0 0 1 4-8c3.187-1.844 5.187-4.511 6-8 1.644-.31 2.644-1.31 3-3 2-1.333 3.667-3 5-5v-1c2.049-1.382 3.715-3.048 5-5v-2c.992.172 1.658-.162 2-1a118.137 118.137 0 0 1 14-12Z"/>
    <path style="opacity:1" fill="#feb394" d="M602.5 687.5c-.255 2.467-1.255 4.467-3 6 .121-2.605 1.121-4.605 3-6Z"/>
    <path style="opacity:1" fill="#f8b793" d="M1423.5 689.5c2.79.563 5.13 1.896 7 4 .33.667.67 1.333 1 2-3-1.686-5.67-3.686-8-6Z"/>
    <path style="opacity:1" fill="#f9b78f" d="M770.5 687.5c-.813 3.489-2.813 6.156-6 8a35.23 35.23 0 0 1 6-8Z"/>
    <path style="opacity:1" fill="#fcc09d" d="M764.5 695.5a28.449 28.449 0 0 0-4 8h-1c.152-3.641 1.818-6.307 5-8Z"/>
    <path style="opacity:1" fill="#f9b597" d="M597.5 695.5a55.03 55.03 0 0 0-3 10c-.368 1.675-1.368 2.675-3 3a36.138 36.138 0 0 1 3-10 10.165 10.165 0 0 0 3-3Z"/>
    <path style="opacity:1" fill="#ffc397" d="M759.5 703.5v1a28.071 28.071 0 0 1-5 5c1.13-1.815 1.796-3.815 2-6h3Z"/>
    <path style="opacity:1" fill="#ef834f" d="M759.5 704.5a1330.986 1330.986 0 0 1-5 10c-.825.886-1.825 1.219-3 1 1.404-1.755 2.404-3.755 3-6a28.071 28.071 0 0 0 5-5Z"/>
    <path style="opacity:1" fill="#f7a57f" d="M591.5 709.5a139.96 139.96 0 0 1-10 20 511.025 511.025 0 0 1 5-14c1.209-2.441 2.876-4.441 5-6Z"/>
    <path style="opacity:1" fill="#f39782" d="M751.5 715.5v4h-3c.054-2.132 1.054-3.465 3-4Z"/>
    <path style="opacity:1" fill="#f5925c" d="M748.5 719.5a52.415 52.415 0 0 1-4.5 12 133.977 133.977 0 0 0-8.5 12 8.43 8.43 0 0 1 .5-4 278.54 278.54 0 0 1 12.5-20Z"/>
    <path style="opacity:1" fill="#f1a478" d="M581.5 729.5a64.556 64.556 0 0 0-3.5 11c-.708.881-1.542 1.547-2.5 2v-1c1.768-3.042 2.934-6.375 3.5-10 .708-.881 1.542-1.547 2.5-2Z"/>
    <path style="opacity:1" fill="#f8a275" d="M735.5 743.5a8.43 8.43 0 0 1-.5 4c-1.55 1.091-2.717 2.424-3.5 4 .03-3.352 1.363-6.018 4-8Z"/>
    <path style="opacity:1" fill="#f29f7a" d="M575.5 745.5c-.63 2.25-1.63 4.25-3 6-.469-2.893.531-4.893 3-6Z"/>
    <path style="opacity:1" fill="#fec9a6" d="M572.5 754.5a195.343 195.343 0 0 0-4 13h-2a77.918 77.918 0 0 1 3.5-10 81.316 81.316 0 0 1 2.5-3Z"/>
    <path style="opacity:1" fill="#ef793d" d="M575.5 741.5v4c-2.469 1.107-3.469 3.107-3 6v3a81.316 81.316 0 0 0-2.5 3 77.918 77.918 0 0 0-3.5 10h-1a315.047 315.047 0 0 1 6.5-23c.422-1.926 1.589-2.926 3.5-3Z"/>
    <path style="opacity:1" fill="#fdb693" d="M730.5 751.5a65.591 65.591 0 0 1-6 18 40.943 40.943 0 0 1-5 7 269.57 269.57 0 0 1 11-25Z"/>
    <path style="opacity:1" fill="#f09b67" d="M565.5 767.5c-.215 5.716-1.548 11.049-4 16 .351-5.694 1.685-11.028 4-16Z"/>
    <path style="opacity:1" fill="#fbecd4" d="M565.5 767.5h3a371.875 371.875 0 0 0-4.5 20c-1.242 2.359-2.742 4.359-4.5 6v-3c1.424-2.015 2.09-4.348 2-7 2.452-4.951 3.785-10.284 4-16Z"/>
    <path style="opacity:1" fill="#f48553" d="M724.5 769.5c-.337 4.336-2.004 8.003-5 11v-4a40.943 40.943 0 0 0 5-7Z"/>
    <path style="opacity:1" fill="#f4b282" d="M717.5 783.5c.09 2.652-.576 4.985-2 7-.09-2.652.576-4.985 2-7Z"/>
    <path style="opacity:1" fill="#eca285" d="M561.5 783.5c.09 2.652-.576 4.985-2 7-.51-2.888.156-5.221 2-7Z"/>
    <path style="opacity:1" fill="#f4a276" d="M559.5 791.5v2l-3 6c-.155-3.216.845-5.883 3-8Z"/>
    <path style="opacity:1" fill="#f69f76" d="M715.5 790.5c-.028 3.416-1.028 6.416-3 9-.355-3.577.645-6.577 3-9Z"/>
    <path style="opacity:1" fill="#ffeee0" d="m559.5 793.5-2 18c-.098 2.119-.931 3.786-2.5 5l-1 8c-1.471.881-2.304 2.214-2.5 4a954.483 954.483 0 0 0-5 32h-3v-4c3.386-7.971 5.386-16.304 6-25a1142.404 1142.404 0 0 0 6-27c-.284-1.915.049-3.581 1-5l3-6Z"/>
    <path style="opacity:1" fill="#f49563" d="M711.5 803.5c-.705 4.414-2.038 8.414-4 12 .119-4.504 1.452-8.504 4-12Z"/>
    <path style="opacity:1" fill="#ef8453" d="M706.5 815.5h1c.473 5.891-.86 11.224-4 16v-3c2.376-3.905 3.376-8.239 3-13Z"/>
    <path style="opacity:1" fill="#f8bd98" d="M706.5 815.5c.376 4.761-.624 9.095-3 13 .425-4.577 1.425-8.91 3-13Z"/>
    <path style="opacity:1" fill="#f69866" d="M555.5 804.5a1142.404 1142.404 0 0 1-6 27h-1c.326-9.642 2.659-18.642 7-27Z"/>
    <path style="opacity:1" fill="#fce9d1" d="M701.5 833.5a59.567 59.567 0 0 0-1 14h-2a59.73 59.73 0 0 1 1-13.5c.54-2.985 1.206-3.152 2-.5Z"/>
    <path style="opacity:1" fill="#f69769" d="M548.5 831.5c.454 5.161-.546 9.827-3 14-.235-5.046.765-9.713 3-14Z"/>
    <path style="opacity:1" fill="#f69566" d="M703.5 831.5c.122 5.677-.878 11.01-3 16a59.567 59.567 0 0 1 1-14l2-2Z"/>
    <path style="opacity:1" fill="#f6caac" d="M548.5 831.5h1c-.614 8.696-2.614 17.029-6 25v-1c-.268-3.583.399-6.916 2-10 2.454-4.173 3.454-8.839 3-14Z"/>
    <path style="opacity:1" fill="#f69e6c" d="M698.5 847.5h1c.306 2.885-.027 5.552-1 8l-2 8a53.756 53.756 0 0 1 2-16Z"/>
    <path style="opacity:1" fill="#f5945f" d="M543.5 855.5v8l-3 8c.462-4.662.962-9.329 1.5-14 .278-.916.778-1.582 1.5-2Z"/>
    <path style="opacity:1" fill="#f1a378" d="M696.5 863.5c-.046 5.774-1.046 11.108-3 16a73.058 73.058 0 0 1 1-12c.085-1.833.752-3.166 2-4Z"/>
    <path style="opacity:1" fill="#fdc39e" d="M693.5 879.5a71.65 71.65 0 0 0-2 16h-1c-.568-5.757.432-11.09 3-16Z"/>
    <path style="opacity:1" fill="#ffe8d4" d="M543.5 863.5a183.908 183.908 0 0 0-2 32h-3l1-16c.973-2.448 1.306-5.115 1-8l3-8Z"/>
    <path style="opacity:1" fill="#f3691e" d="M698.5 855.5a330.085 330.085 0 0 0-2 31c1.175.219 2.175-.114 3-1a86.014 86.014 0 0 1 3.5-12 38.064 38.064 0 0 1-.5 15 23.411 23.411 0 0 0-3 7 257.78 257.78 0 0 0-2 32h-3c-.595-11.315.072-22.481 2-33.5-.13-1.059-.63-1.892-1.5-2.5a944.774 944.774 0 0 1-3.5 10v-6a71.65 71.65 0 0 1 2-16c1.954-4.892 2.954-10.226 3-16l2-8Z"/>
    <path style="opacity:1" fill="#faccb5" d="M690.5 895.5c-.627 4.641-.96 9.307-1 14v2h-1c-.427-5.614.24-10.947 2-16Z"/>
    <path style="opacity:1" fill="#f1915c" d="M690.5 895.5h1v6c-.463 2.83-1.129 5.497-2 8 .04-4.693.373-9.359 1-14Z"/>
    <path style="opacity:1" fill="#f57b3d" d="m539.5 879.5-1 16c-.934 1.068-1.268 2.401-1 4-1.098 6.479-1.765 13.146-2 20-1.655 7.771-2.322 15.771-2 24h-1c-.166-9.339 0-18.673.5-28a146.652 146.652 0 0 0 3-28l2-2c.191-2.208.691-4.208 1.5-6Z"/>
    <path style="opacity:1" fill="#ffcfb0" d="M537.5 899.5a162.597 162.597 0 0 1-.5 18c-.278.916-.778 1.582-1.5 2 .235-6.854.902-13.521 2-20Z"/>
    <path style="opacity:1" fill="#fa9f5f" d="M688.5 911.5h1c.427 5.614-.24 10.947-2 16-.321-5.526.012-10.86 1-16Z"/>
    <path style="opacity:1" fill="#e9ba9e" d="M687.5 927.5v16h-2c.027-5.551.694-10.884 2-16Z"/>
    <path style="opacity:1" fill="#fcc0a4" d="M535.5 919.5c.11 8.025-.224 16.025-1 24h-1c-.322-8.229.345-16.229 2-24Z"/>
    <path style="opacity:1" fill="#f66716" d="M1087.5 962.5h368v5h-368v-5Z"/>
    <path style="opacity:1" fill="#f5742b" d="M1465.5 975.5h-378v-3c123.14.662 246.14-.004 369-2 1.94.689 3.94 1.189 6 1.5-.33.333-.67.667-1 1 1.94.122 3.27.955 4 2.5Z"/>
    <path style="opacity:1" fill="#fdc9a5" d="M685.5 949.5v23a871.155 871.155 0 0 0-1 59c-.667-10.49-1-21.16-1-32a508.927 508.927 0 0 1 2-50Z"/>
    <path style="opacity:1" fill="#fff9f0" d="M1455.5 976.5c-122.33 1.698-245 2.698-368 3v-3h368Z"/>
    <path style="opacity:1" fill="#fbfafe" d="M1460.5 976.5h4c.17 149 0 298-.5 447-.33 3.33-.67 6.67-1 10-1.97 1.73-4.14 3.07-6.5 4 .62-2.84 1.29-5.67 2-8.5-2.33-1.49-2.66-3.32-1-5.5h3v-447Z"/>
    <path style="opacity:1" fill="#ffe6d4" d="M532.5 943.5h2c-.202 42.673.131 85.34 1 128h-1c-1.321-10.47-1.988-21.14-2-32v-96Z"/>
    <path style="opacity:1" fill="#fc9763" d="M685.5 972.5c-.33 19.507.003 38.84 1 58v25l-2-22v-2c-.33-19.84.003-39.507 1-59Z"/>
    <path style="opacity:1" fill="#f16721" d="M1077.5 975.5h3v112h-3v-112Z"/>
    <path style="opacity:1" fill="#f5c3ae" d="M1085.5 975.5h379v1h-377v117h-2v-118Z"/>
    <path style="opacity:1" fill="#fcfef5" d="M1457.5 976.5h3v447h-3c.02-149.03.02-298.03 0-447Z"/>
    <path style="opacity:1" fill="#ffe6c9" d="M1464.5 975.5h2c.17 153.33 0 306.67-.5 460a32.254 32.254 0 0 0-4.5 4h-1c-1.67.67-3.33 1.33-5 2 .33-1.33.67-2.67 1-4 2.36-.93 4.53-2.27 6.5-4 .33-3.33.67-6.67 1-10 .5-149 .67-298 .5-447v-1Z"/>
    <path style="opacity:1" fill="#f48244" d="M1466.5 975.5c.85 153.18 1.35 306.51 1.5 460-1.32 2.74-3.49 4.08-6.5 4 1.33-1.43 2.83-2.77 4.5-4 .5-153.33.67-306.67.5-460Z"/>
    <path style="opacity:1" fill="#f7ab83" d="M532.5 959.5v80h-1c-.667-13.16-1-26.5-1-40 .001-13.684.667-27.017 2-40Z"/>
    <path style="opacity:1" fill="#f36d2f" d="M685.5 943.5h2a2140.114 2140.114 0 0 0-1 87 841.831 841.831 0 0 1-1-58v-29Z"/>
    <path style="opacity:1" fill="#f8c3a5" d="m684.5 1033.5 2 22c.988 5.14 1.321 10.47 1 16-2.687-12.37-3.687-25.04-3-38Z"/>
    <path style="opacity:1" fill="#fef1e5" d="M543.5 1135.5h-1c-.282-5.52-.949-10.85-2-16h-1c-.027-5.55-.694-10.88-2-16-.988-5.14-1.321-10.47-1-16l-1-16c1.149-.29 1.816-1.12 2-2.5l2-11a46.874 46.874 0 0 1 0-18.5c.864 4.3 1.53 8.64 2 13a1042.543 1042.543 0 0 0-3 32 943.45 943.45 0 0 0 5 51Z"/>
    <path style="opacity:1" fill="#fdb086" d="M534.5 1071.5h1l1 16c-1.946-4.9-2.613-10.23-2-16Z"/>
    <path style="opacity:1" fill="#f2722f" d="M531.5 1039.5h1c.012 10.86.679 21.53 2 32-.613 5.77.054 11.1 2 16-.321 5.53.012 10.86 1 16v8c-.617-.11-1.117-.44-1.5-1-.26-6.05-.927-12.05-2-18-.333-.33-.667-.67-1-1-1.044 1.12-1.71 2.46-2 4l-.5-4a74.44 74.44 0 0 0 2-12 534.154 534.154 0 0 1-1-40Z"/>
    <path style="opacity:1" fill="#f07433" d="M687.5 1071.5c2.325 3.83 3.991 8 5 12.5a122.424 122.424 0 0 0-1 19.5h-1c-.134-5.68-.467-11.34-1-17-.029-2.77-.695-5.1-2-7v-8Z"/>
    <path style="opacity:1" fill="#ffe9d7" d="M1323.5 1094.5h-2c-78.17.33-156.17 0-234-1v-1c77.86.33 155.7 0 233.5-1 1.75.25 2.58 1.25 2.5 3Z"/>
    <path style="opacity:1" fill="#fbac85" d="M1086.5 1093.5h1c77.83 1 155.83 1.33 234 1v1c-78.67.66-157.01 0-235-2Z"/>
    <path style="opacity:1" fill="#ee7f48" d="M1085.5 1093.5h1c77.99 2 156.33 2.66 235 2h1c.33 95.5 0 190.83-1 286 .33-94.83 0-189.5-1-284h-1c-77.83-1-155.83-1.33-234-1v-3Z"/>
    <path style="opacity:1" fill="#f56d2c" d="M1085.5 975.5v121c78.17-.33 156.17 0 234 1-77.5-.33-154.84 0-232 1a5.576 5.576 0 0 1-3-1c-.33-1.67-.67-3.33-1-5 .64-39.16 1.3-78.16 2-117Z"/>
    <path style="opacity:1" fill="#fe6011" d="M1319.5 1097.5v4h-8c-69.33.17-138.67 0-208-.5-5.76.12-11.09-.71-16-2.5 77.16-1 154.5-1.33 232-1Z"/>
    <path style="opacity:1" fill="#f9b58f" d="M687.5 1079.5c1.305 1.9 1.971 4.23 2 7 .533 5.66.866 11.32 1 17l-2-6c-.201-6.01-.534-12.01-1-18Z"/>
    <path style="opacity:1" fill="#ed6d2d" d="M1320.5 1097.5c1 94.5 1.33 189.17 1 284l-2 2c-1.67.67-3.33 1.33-5 2 .43-2.75 2.09-4.41 5-5 .89-.82 1.22-1.82 1-3v-280Z"/>
    <path style="opacity:1" fill="#f3671e" d="M1319.5 1097.5h1v280c-1-91.17-1.33-182.5-1-274-77.33.17-154.67 0-232-.5 74.83-.17 149.5-.67 224-1.5h8v-4Z"/>
    <path style="opacity:1" fill="#feb38c" d="M1322.5 1095.5c1 95.17 1.33 190.5 1 286-.79 1.6-2.12 2.27-4 2l2-2c1-95.17 1.33-190.5 1-286Z"/>
    <path style="opacity:1" fill="#ffdbc3" d="M1321.5 1095.5v-1h2c1.33 95.67 1.33 191.33 0 287 .33-95.5 0-190.83-1-286h-1Z"/>
    <path style="opacity:1" fill="#feba9a" d="M690.5 1103.5h1a659.509 659.509 0 0 1 3 24c-1.981-7.77-3.314-15.77-4-24Z"/>
    <path style="opacity:1" fill="#faa373" d="M537.5 1103.5c1.306 5.12 1.973 10.45 2 16-.667-2.33-1.333-4.67-2-7v-9Z"/>
    <path style="opacity:1" fill="#f07e50" d="M691.5 1103.5c2.955 10.25 4.621 20.92 5 32-1.869-2.14-2.536-4.8-2-8a659.509 659.509 0 0 0-3-24Z"/>
    <path style="opacity:1" fill="#fbbc9e" d="M540.5 1119.5c1.051 5.15 1.718 10.48 2 16-1.76-5.05-2.427-10.39-2-16Z"/>
    <path style="opacity:1" fill="#fef6ee" d="m688.5 1097.5 2 6c.686 8.23 2.019 16.23 4 24-.536 3.2.131 5.86 2 8l2 16v9a191.851 191.851 0 0 0-4.5-16c-.321 7.67-.154 15.34.5 23h-4c-.13-4.37.203-8.7 1-13-2.792-7.32-2.459-14.49 1-21.5a184.88 184.88 0 0 1-4-35.5Z"/>
    <path style="opacity:1" fill="#f37538" d="M537.5 1112.5c.667 2.33 1.333 4.67 2 7h1c-.427 5.61.24 10.95 2 16h1v16c-1.086-.12-1.753-.79-2-2a129.99 129.99 0 0 1-1.5-7 489.824 489.824 0 0 0-2.5-30Z"/>
    <path style="opacity:1" fill="#f7be9f" d="M543.5 1141.5c3.627 8.08 5.293 16.75 5 26-1.662-5.45-3.328-10.78-5-16v-10Z"/>
    <path style="opacity:1" fill="#e98b57" d="M699.5 1151.5c2.804 4.87 4.138 10.2 4 16-1.909-5.08-3.242-10.42-4-16Z"/>
    <path style="opacity:1" fill="#fce6d0" d="M698.5 1151.5h1c.758 5.58 2.091 10.92 4 16-.206 3 .46 5.66 2 8 .065 2.93.732 5.59 2 8v5c-1.499-1.18-2.499-2.84-3-5a34.242 34.242 0 0 1-1.5-8 7.248 7.248 0 0 0-2.5-2 600.54 600.54 0 0 1-2-13v-9Z"/>
    <path style="opacity:1" fill="#fdbda3" d="M548.5 1167.5c1.574 1.6 2.241 3.6 2 6-1.574-1.6-2.241-3.6-2-6Z"/>
    <path style="opacity:1" fill="#f0783e" d="M543.5 1151.5c1.672 5.22 3.338 10.55 5 16-.241 2.4.426 4.4 2 6v8c-1.175-1.47-2.175-3.14-3-5a146.338 146.338 0 0 0-4-25Z"/>
    <path style="opacity:1" fill="#f88c67" d="M705.5 1175.5c1.723 2.28 2.389 4.95 2 8-1.268-2.41-1.935-5.07-2-8Z"/>
    <path style="opacity:1" fill="#f6ad87" d="M550.5 1177.5c.617.11 1.117.44 1.5 1 .44 2.37.94 4.7 1.5 7 .65 1.94.983 3.94 1 6l-2-3c-.907-2.16-1.573-4.49-2-7v-4Z"/>
    <path style="opacity:1" fill="#ef8952" d="M707.5 1183.5c3.641 4.59 5.307 9.93 5 16-1.52-3.77-3.186-7.44-5-11v-5Z"/>
    <path style="opacity:1" fill="#ed793b" d="m552.5 1188.5 2 3c.065 2.93.732 5.59 2 8 .42 3.51 1.42 6.84 3 10-1.956-.62-3.289-1.96-4-4a46.889 46.889 0 0 1-3-17Z"/>
    <path style="opacity:1" fill="#fcb994" d="M554.5 1191.5c1.723 2.28 2.389 4.95 2 8-1.268-2.41-1.935-5.07-2-8Z"/>
    <path style="opacity:1" fill="#fdebdf" d="M553.5 1185.5c1.605 1.98 2.772 4.31 3.5 7 .977 4.33 1.81 8.66 2.5 13 1.322-.17 2.489.16 3.5 1 .833 1.67 1.667 3.33 2.5 5-2.6 3.45-2.6 6.78 0 10 .966-1.9 1.299-3.9 1-6h3c-1.813 5.13-2.813 10.46-3 16-1.991-5.32-3.991-10.65-6-16-.961-1.76-1.295-3.76-1-6a30.214 30.214 0 0 1-3-10c.389-3.05-.277-5.72-2-8-.017-2.06-.35-4.06-1-6Z"/>
    <path style="opacity:1" fill="#ffe4d0" d="M707.5 1188.5c1.814 3.56 3.48 7.23 5 11 .37 3.73 1.037 7.4 2 11a24.963 24.963 0 0 1-4-5.5c-.64-5.66-1.64-11.16-3-16.5Z"/>
    <path style="opacity:1" fill="#f69767" d="M712.5 1199.5c2.719 4.89 4.385 10.22 5 16a27.162 27.162 0 0 0-3-5c-.963-3.6-1.63-7.27-2-11Z"/>
    <path style="opacity:1" fill="#fce8d4" d="M714.5 1210.5a27.162 27.162 0 0 1 3 5c1.844 1.78 2.51 4.11 2 7-6.584-2.18-8.251-6.18-5-12Z"/>
    <path style="opacity:1" fill="#faba94" d="M719.5 1222.5c3.113 2.14 4.446 5.14 4 9h-2l-2-9Z"/>
    <path style="opacity:1" fill="#f2712e" d="M560.5 1215.5c2.009 5.35 4.009 10.68 6 16l2 6c.982 3.26 1.649 6.6 2 10-2.631-1.14-4.464-3.14-5.5-6-.765-8.93-2.265-17.6-4.5-26Z"/>
    <path style="opacity:1" fill="#f37139" d="M724.5 1231.5c1.886 2.7 4.053 5.37 6.5 8 .818 4.95 2.318 9.62 4.5 14-1-.67-2-1.33-3-2-.489-1.5-1.155-2.83-2-4a8.43 8.43 0 0 0-.5-4c-.902-1.93-2.069-3.6-3.5-5a29.484 29.484 0 0 1-2-7Z"/>
    <path style="opacity:1" fill="#fbbb95" d="M568.5 1237.5c1.457 1.74 2.624 3.74 3.5 6a8.43 8.43 0 0 1 .5 4h-2a53.768 53.768 0 0 0-2-10Z"/>
    <path style="opacity:1" fill="#f5b387" d="M726.5 1238.5c1.431 1.4 2.598 3.07 3.5 5a8.43 8.43 0 0 1 .5 4c-2.084-2.55-3.417-5.55-4-9Z"/>
    <path style="opacity:1" fill="#ee7f45" d="M571.5 1247.5h1a24.104 24.104 0 0 0 3 8h-4v-8Z"/>
    <path style="opacity:1" fill="#fdf2df" d="M721.5 1231.5h3a29.484 29.484 0 0 0 2 7c.583 3.45 1.916 6.45 4 9 .845 1.17 1.511 2.5 2 4 .255 2.47 1.255 4.47 3 6v2c-5.373-3.4-8.207-8.4-8.5-15-3.114-4.18-4.947-8.51-5.5-13Z"/>
    <path style="opacity:1" fill="#f2bc9e" d="M732.5 1251.5c1 .67 2 1.33 3 2v4c-1.745-1.53-2.745-3.53-3-6Z"/>
    <path style="opacity:1" fill="#f8a887" d="M735.5 1257.5c2.475 1.19 3.475 3.19 3 6-.643-1.58-1.643-2.91-3-4v-2Z"/>
    <path style="opacity:1" fill="#f2a57f" d="M575.5 1257.5c2.469 1.11 3.469 3.11 3 6h-3v-6Z"/>
    <path style="opacity:1" fill="#fdd9bf" d="M581.5 1268.5c3.258 2.87 4.591 6.54 4 11-1.548-.32-2.215-1.32-2-3-.194-2.83-.861-5.5-2-8Z"/>
    <path style="opacity:1" fill="#f6a471" d="M579.5 1267.5c.667.33 1.333.67 2 1 1.139 2.5 1.806 5.17 2 8-2.084-2.55-3.417-5.55-4-9Z"/>
    <path style="opacity:1" fill="#f5aa82" d="M742.5 1268.5a57.946 57.946 0 0 0 7 11c.204 2.19.87 4.19 2 6a48.41 48.41 0 0 1-7.5-11 20.153 20.153 0 0 1-1.5-6Z"/>
    <path style="opacity:1" fill="#f39d6c" d="M585.5 1279.5c1.9 3.02 3.233 6.35 4 10-2.831-2.59-4.165-5.92-4-10Z"/>
    <path style="opacity:1" fill="#f37a3d" d="M749.5 1279.5h4c-.552 5.19 1.281 9.19 5.5 12a8.43 8.43 0 0 1 .5 4h-1c-2.301-3.31-4.634-6.64-7-10-1.13-1.81-1.796-3.81-2-6Z"/>
    <path style="opacity:1" fill="#fba07a" d="M593.5 1297.5c3.689 4.04 6.355 8.71 8 14a78.414 78.414 0 0 1-7.5-10 8.43 8.43 0 0 1-.5-4Z"/>
    <path style="opacity:1" fill="#fde6c7" d="M758.5 1295.5h1a26.76 26.76 0 0 0 4 8v2c-4.293-1.97-5.96-5.31-5-10Z"/>
    <path style="opacity:1" fill="#f8ac8b" d="M763.5 1303.5a6.97 6.97 0 0 0 4 2v2a6.97 6.97 0 0 1-4-2v-2Z"/>
    <path style="opacity:1" fill="#f37437" d="M767.5 1305.5c2.599.05 4.766 1.05 6.5 3 .54 1.63.04 2.97-1.5 4a31.796 31.796 0 0 0 4.5 5c.483.95.649 1.95.5 3-2.818-2.48-4.818-5.48-6-9-2.642.01-3.975-1.32-4-4v-2Z"/>
    <path style="opacity:1" fill="#f1915e" d="M601.5 1311.5c1.174 1.01 1.84 2.35 2 4v2c-1.574-1.6-2.241-3.6-2-6Z"/>
    <path style="opacity:1" fill="#f17f4b" d="M603.5 1317.5c3.545 2.42 5.545 5.76 6 10-1.575-2.03-3.408-4.03-5.5-6a8.43 8.43 0 0 1-.5-4Z"/>
    <path style="opacity:1" fill="#ffe7d2" d="M603.5 1315.5c2.71 2.44 5.544 4.78 8.5 7 .395 2.71.895 5.37 1.5 8a10.26 10.26 0 0 1-3-3h-1c-.455-4.24-2.455-7.58-6-10v-2Z"/>
    <path style="opacity:1" fill="#f27f49" d="M777.5 1320.5c3.801.8 5.801 3.13 6 7a44.56 44.56 0 0 1-6-7Z"/>
    <path style="opacity:1" fill="#f5a77f" d="M783.5 1327.5h3c-.108 2.01.558 3.68 2 5-2.316-.92-3.983-2.59-5-5Z"/>
    <path style="opacity:1" fill="#ef9d72" d="M610.5 1327.5a10.26 10.26 0 0 0 3 3v2c-2.259-.84-3.259-2.51-3-5Z"/>
    <path style="opacity:1" fill="#f7b27e" d="M791.5 1335.5a45.44 45.44 0 0 1 8 8c-3.667-1.67-6.333-4.33-8-8Z"/>
    <path style="opacity:1" fill="#fcc09e" d="M613.5 1331.5h3c.362 4.42 1.695 8.42 4 12-3.068-3.12-5.402-6.79-7-11v-1Z"/>
    <path style="opacity:1" fill="#f99f71" d="M801.5 1345.5c3.264 1.59 5.931 3.93 8 7-3.264-1.59-5.931-3.93-8-7Z"/>
    <path style="opacity:1" fill="#ffc08a" d="M620.5 1343.5h3v4c-1.762-.76-2.762-2.1-3-4Z"/>
    <path style="opacity:1" fill="#fed8ba" d="M623.5 1347.5h4c.193 2.81.86 5.48 2 8h3v4h-3a50.435 50.435 0 0 0-6-12Z"/>
    <path style="opacity:1" fill="#f9916a" d="M809.5 1352.5a6.97 6.97 0 0 1 4 2c1.051.72 1.718 1.72 2 3-2.589-.92-4.589-2.59-6-5Z"/>
    <path style="opacity:1" fill="#ffcbaa" d="M632.5 1359.5c3.126 1.66 4.793 4.33 5 8-1-.67-2-1.33-3-2l-2-6Z"/>
    <path style="opacity:1" fill="#f07634" d="M813.5 1354.5c4.873-.9 7.539 1.1 8 6 2.668 1.01 4.668 2.68 6 5h-2c-2.338-1.18-4.338-2.85-6-5-1.189-.93-2.522-1.26-4-1v-2c-.282-1.28-.949-2.28-2-3Z"/>
    <path style="opacity:1" fill="#ffe2c9" d="M815.5 1359.5c1.478-.26 2.811.07 4 1 1.662 2.15 3.662 3.82 6 5 .333.67.667 1.33 1 2a39.328 39.328 0 0 1-10-5c-.886-.82-1.219-1.82-1-3Z"/>
    <path style="opacity:1" fill="#f8aa84" d="M825.5 1365.5h2c1.027 1.69 2.361 3.03 4 4-2.014.11-3.68-.56-5-2-.333-.67-.667-1.33-1-2Z"/>
    <path style="opacity:1" fill="#f0804a" d="M831.5 1370.5v-1c4.378-.29 7.045 1.71 8 6-2.088-2.39-4.755-4.06-8-5Z"/>
    <path style="opacity:1" fill="#f48951" d="M634.5 1365.5c1 .67 2 1.33 3 2 2.762 2.1 4.762 4.76 6 8-3 .33-4.333-1-4-4-3.387-.36-5.053-2.36-5-6Z"/>
    <path style="opacity:1" fill="#ffd8b0" d="M643.5 1375.5h4a20.68 20.68 0 0 0 1 5c-.667-.33-1.333-.67-2-1a8.98 8.98 0 0 1-3-4Z"/>
    <path style="opacity:1" fill="#fcdbbf" d="M831.5 1370.5c3.245.94 5.912 2.61 8 5 1.159 1.75 2.826 2.75 5 3 1.679-.21 2.679.45 3 2a28.364 28.364 0 0 1-10-3c-1.394-3.05-3.394-5.38-6-7Z"/>
    <path style="opacity:1" fill="#f8a177" d="M839.5 1375.5c2.489-.26 4.156.74 5 3-2.174-.25-3.841-1.25-5-3Z"/>
    <path style="opacity:1" fill="#f08752" d="M847.5 1380.5c4.024.37 7.357 2.04 10 5a20.643 20.643 0 0 0-5-1 22.784 22.784 0 0 0-5-4Z"/>
    <path style="opacity:1" fill="#f9a27a" d="M646.5 1379.5c.667.33 1.333.67 2 1a17.982 17.982 0 0 1 4 6c-2.743-1.74-4.743-4.07-6-7Z"/>
    <path style="opacity:1" fill="#fbbd9e" d="M1319.5 1383.5c-1.81 2.91-4.48 4.24-8 4 .32-1.55 1.32-2.21 3-2 1.67-.67 3.33-1.33 5-2Z"/>
    <path style="opacity:1" fill="#ffdab5" d="M852.5 1384.5c1.716.13 3.383.46 5 1 1.194.77 2.194 1.77 3 3-3.519.24-6.185-1.09-8-4Z"/>
    <path style="opacity:1" fill="#f37b41" d="M857.5 1385.5a41.285 41.285 0 0 0 10 2v4h-4v-3h-3a10.118 10.118 0 0 0-3-3Z"/>
    <path style="opacity:1" fill="#ed9566" d="M1311.5 1387.5c-1.84 2.09-4.17 3.42-7 4 .98-3.49 3.32-4.82 7-4Z"/>
    <path style="opacity:1" fill="#fa7d57" d="M652.5 1386.5c2.227.9 3.227 2.57 3 5-2.584-.55-3.584-2.21-3-5Z"/>
    <path style="opacity:1" fill="#f4a276" d="M658.5 1393.5c2.414 1.41 4.081 3.41 5 6-2.414-1.41-4.081-3.41-5-6Z"/>
    <path style="opacity:1" fill="#fbcaae" d="M1304.5 1391.5c-1.22 1.95-2.88 3.45-5 4.5-3.39.74-6.72 1.58-10 2.5 3.55-2.25 7.21-4.42 11-6.5 1.29-.49 2.63-.66 4-.5Z"/>
    <path style="opacity:1" fill="#fda793" d="M663.5 1399.5c2.333.33 3.667 1.67 4 4-1.841-.9-3.174-2.24-4-4Z"/>
    <path style="opacity:1" fill="#fcba95" d="M867.5 1391.5c6.017 2.68 12.017 5.34 18 8 3.138 2.5 6.472 4.5 10 6a79.282 79.282 0 0 1-17.5-7c-3.994-1.74-7.494-4.07-10.5-7Z"/>
    <path style="opacity:1" fill="#f1783c" d="M885.5 1399.5a80.54 80.54 0 0 1 18 5.5c.752.67 1.086 1.5 1 2.5h-2c-.111-.62-.444-1.12-1-1.5-1.973-.5-3.973-.66-6-.5-3.528-1.5-6.862-3.5-10-6Z"/>
    <path style="opacity:1" fill="#febe9c" d="M1289.5 1398.5c-2.61 2.66-5.95 3.99-10 4 2.85-2.23 6.19-3.56 10-4Z"/>
    <path style="opacity:1" fill="#fb9a7c" d="M667.5 1403.5c1.667 1 3 2.33 4 4-2.333-.33-3.667-1.67-4-4Z"/>
    <path style="opacity:1" fill="#faa47d" d="M895.5 1405.5c2.027-.16 4.027 0 6 .5.556.38.889.88 1 1.5-2.652.09-4.985-.58-7-2Z"/>
    <path style="opacity:1" fill="#fec8a5" d="M1279.5 1403.5c-3.19 2.39-6.86 3.72-11 4 .11-.62.44-1.12 1-1.5 3.28-1.14 6.61-1.98 10-2.5Z"/>
    <path style="opacity:1" fill="#fbc0a0" d="M903.5 1407.5h1c2.047 1.57 4.381 2.57 7 3v1c-3.494-.03-6.161-1.37-8-4Z"/>
    <path style="opacity:1" fill="#ffbb9e" d="M671.5 1407.5h4a8.43 8.43 0 0 0 .5 4 19.738 19.738 0 0 1 3.5 4c-3.711-1.71-6.378-4.38-8-8Z"/>
    <path style="opacity:1" fill="#f7ac89" d="M1260.5 1409.5c-3.74 3.03-8.07 4.69-13 5 3.86-2.41 8.19-4.08 13-5Z"/>
    <path style="opacity:1" fill="#ffcea3" d="M679.5 1415.5a43.842 43.842 0 0 1 7 4.5c.752.67 1.086 1.5 1 2.5a6.97 6.97 0 0 0-4-2c-1.333-1.67-2.667-3.33-4-5Z"/>
    <path style="opacity:1" fill="#ed844c" d="M911.5 1411.5v-1c2.027-.16 4.027 0 6 .5a12.75 12.75 0 0 0 6 3c3.333.33 6.667.67 10 1 1.256.42 1.923 1.25 2 2.5-2.667-.33-5.333-.67-8-1-5.238-1.6-10.571-3.27-16-5Z"/>
    <path style="opacity:1" fill="#fed3b9" d="M927.5 1416.5c2.667.33 5.333.67 8 1l8 3a45.62 45.62 0 0 1-12-1c-2.153-.06-3.486-1.06-4-3Z"/>
    <path style="opacity:1" fill="#ffdec6" d="M1247.5 1415.5c-1.99.84-4.15 1.51-6.5 2-1.17.51-2 1.34-2.5 2.5-7.67 1.28-15.33 2.45-23 3.5v-1c10.77-2.01 21.44-4.34 32-7Z"/>
    <path style="opacity:1" fill="#ee8b59" d="M1247.5 1414.5v1a526.214 526.214 0 0 1-32 7c.38-1.43 1.38-2.26 3-2.5 9.7-1.86 19.37-3.69 29-5.5Z"/>
    <path style="opacity:1" fill="#f69463" d="M683.5 1420.5a6.97 6.97 0 0 1 4 2v1c-2.473.41-3.806-.59-4-3Z"/>
    <path style="opacity:1" fill="#faad7e" d="M943.5 1420.5c3.928-.52 7.261.48 10 3-3.878.48-7.212-.52-10-3Z"/>
    <path style="opacity:1" fill="#fce3c8" d="M689.5 1423.5a8.394 8.394 0 0 1 4 .5c-.457.41-.791.91-1 1.5.76 1.86 1.76 3.53 3 5-1.109-.06-2.109-.39-3-1l-3-6Z"/>
    <path style="opacity:1" fill="#f29a71" d="M687.5 1423.5h2l3 6c-2.517-1.39-4.184-3.39-5-6Z"/>
    <path style="opacity:1" fill="#f8b186" d="M959.5 1424.5c5.647.09 10.98 1.09 16 3-5.745.45-11.079-.55-16-3Z"/>
    <path style="opacity:1" fill="#f49566" d="M1208.5 1423.5c-7.93 3.05-16.26 4.71-25 5 2.89-1.77 6.23-2.93 10-3.5 5.02-.41 10.02-.91 15-1.5Z"/>
    <path style="opacity:1" fill="#fcedd7" d="M1208.5 1423.5h7c-1.31.97-1.97 2.3-2 4-9.99.78-19.99 1.45-30 2v-1c8.74-.29 17.07-1.95 25-5Z"/>
    <path style="opacity:1" fill="#f88a57" d="M1183.5 1428.5v1c-5.36-.03-10.7.31-16 1 4.9-1.95 10.23-2.61 16-2Z"/>
    <path style="opacity:1" fill="#fed3c6" d="M975.5 1428.5c5.597.27 10.93 1.27 16 3-5.597-.27-10.93-1.27-16-3Z"/>
    <path style="opacity:1" fill="#f59462" d="M975.5 1428.5v-1c10.805 1.26 21.471 2.59 32 4v1a118.71 118.71 0 0 0-16-1c-5.07-1.73-10.403-2.73-16-3Z"/>
    <path style="opacity:1" fill="#fccab5" d="M1183.5 1429.5c-5.07 1.68-10.4 2.34-16 2v-1c5.3-.69 10.64-1.03 16-1Z"/>
    <path style="opacity:1" fill="#f47f42" d="M1087.5 1434.5h32v1h-80l-32-3v-1c6.61.36 13.11-.31 19.5-2 1.17.17 2.33.33 3.5.5-1.33.67-1.33 1.33 0 2 5.27 1.11 10.6 1.77 16 2 13.66.5 27.33.67 41 .5Z"/>
    <path style="opacity:1" fill="#f16b24" d="M1151.5 1431.5v1c-10.71.01-21.38.67-32 2h-32a642.56 642.56 0 0 1 36-1.5c1-.33 2-.67 3-1-2.51-.38-4.84-1.21-7-2.5 5.29-.99 10.63-1.33 16-1v3h16Z"/>
    <path style="opacity:1" fill="#fdc0a3" d="M695.5 1430.5c2.927 1.26 5.261 3.26 7 6-2.927-1.26-5.261-3.26-7-6Z"/>
    <path style="opacity:1" fill="#fdc0a0" d="M1167.5 1430.5v1c-5.2 1.59-10.53 2.25-16 2v-2c5.33-.33 10.67-.67 16-1Z"/>
    <path style="opacity:1" fill="#ffdec6" d="M991.5 1431.5c5.362-.03 10.7.31 16 1l32 3h-16l-24-1.5c-2.81-.78-5.477-1.62-8-2.5Z"/>
    <path style="opacity:1" fill="#feb78e" d="M1151.5 1432.5v1c-5.51.37-10.84 1.04-16 2h-16v-1c10.62-1.33 21.29-1.99 32-2Z"/>
    <path style="opacity:1" fill="#ffebd3" d="M1023.5 1435.5h24v2a285.4 285.4 0 0 1-24-2Z"/>
    <path style="opacity:1" fill="#fbbda2" d="M1047.5 1435.5h64c-2.67.67-5.33 1.33-8 2h-56v-2Z"/>
    <path style="opacity:1" fill="#ffead1" d="M1111.5 1435.5h24c-1.79.81-3.79 1.31-6 1.5-8.66.5-17.33.67-26 .5 2.67-.67 5.33-1.33 8-2Z"/>
    <path style="opacity:1" fill="#f59c71" d="M709.5 1443.5c2.589.92 4.589 2.59 6 5-2.589-.92-4.589-2.59-6-5Z"/>
    <path style="opacity:1" fill="#f89c6c" d="M1460.5 1439.5c.09 1-.25 1.83-1 2.5a20.69 20.69 0 0 1-6 2c-1.61 2.13-3.61 3.63-6 4.5 2.05-3.05 4.72-5.39 8-7 1.67-.67 3.33-1.33 5-2Z"/>
    <path style="opacity:1" fill="#f49c5c" d="M715.5 1448.5h4v3c-2.119.03-3.452-.97-4-3Z"/>
    <path style="opacity:1" fill="#f5a37a" d="M1445.5 1448.5c-.98 2.82-2.98 4.16-6 4 1.72-1.72 3.72-3.05 6-4Z"/>
    <path style="opacity:1" fill="#f39867" d="M719.5 1451.5c3.929.93 6.595 3.26 8 7a40.054 40.054 0 0 1-8-7Z"/>
    <path style="opacity:1" fill="#f4b190" d="M1439.5 1452.5v3c-3.63 1.26-7.3 2.59-11 4 3.39-2.72 7.06-5.05 11-7Z"/>
    <path style="opacity:1" fill="#f68954" d="M729.5 1458.5c2.45 1.21 4.45 2.88 6 5h-5a20.68 20.68 0 0 0-1-5Z"/>
    <path style="opacity:1" fill="#fab285" d="M1428.5 1460.5a22.668 22.668 0 0 1-5 4c-2.06.02-4.06.35-6 1 3.21-2.43 6.88-4.1 11-5Z"/>
    <path style="opacity:1" fill="#fbab7b" d="M735.5 1463.5c3.641.15 6.307 1.82 8 5a43.859 43.859 0 0 0-7-3c-.798-.46-1.131-1.12-1-2Z"/>
    <path style="opacity:1" fill="#ef8d55" d="M1423.5 1464.5a169.31 169.31 0 0 1-13 7c1.78-2.71 4.11-4.71 7-6 1.94-.65 3.94-.98 6-1Z"/>
    <path style="opacity:1" fill="#f68b50" d="M747.5 1471.5h4c.221 2.16 1.221 3.83 3 5-3.816.24-6.149-1.43-7-5Z"/>
    <path style="opacity:1" fill="#ed925e" d="M1407.5 1471.5v4c-5.31 1.63-10.65 3.29-16 5 1.33-1 2.67-2 4-3 3.98-1.96 7.98-3.96 12-6Z"/>
    <path style="opacity:1" fill="#f8aa86" d="M761.5 1479.5c2.277.95 4.277 2.28 6 4-2.792-.12-4.792-1.46-6-4Z"/>
    <path style="opacity:1" fill="#fde0c4" d="M767.5 1483.5c2.667.33 5.333.67 8 1v3h-2c-2.037-1.35-4.037-2.68-6-4Z"/>
    <path style="opacity:1" fill="#fbedd7" d="M1395.5 1477.5c-1.33 1-2.67 2-4 3v1c-3.86-.45-6.86.89-9 4-1.98 1.67-4.31 2.33-7 2 .01-1.52.68-2.68 2-3.5 4.39-.73 8.05-2.73 11-6 2.31-.5 4.64-.66 7-.5Z"/>
    <path style="opacity:1" fill="#f39c6c" d="M1391.5 1481.5c-2.59 2.09-5.59 3.43-9 4 2.14-3.11 5.14-4.45 9-4Z"/>
    <path style="opacity:1" fill="#fcf1e2" d="M776.5 1487.5c3.427.6 6.76.77 10 .5.63 1.89 1.63 3.56 3 5 3.55.67 6.217 2.5 8 5.5-1.333-.33-2.667-.67-4-1-1.667-.67-3.333-1.33-5-2-1.159-1.75-2.826-2.75-5-3a24.733 24.733 0 0 1-7-5Z"/>
    <path style="opacity:1" fill="#f4a174" d="M1375.5 1487.5c.22 1.18-.11 2.18-1 3-1.9.77-3.56 1.77-5 3-2.83.08-5.49.75-8 2 4.55-2.62 9.22-5.28 14-8Z"/>
    <path style="opacity:1" fill="#f08c57" d="M773.5 1487.5h3a24.733 24.733 0 0 0 7 5c-2.027.16-4.027 0-6-.5-.857-2.02-2.191-3.52-4-4.5Z"/>
    <path style="opacity:1" fill="#f7a07c" d="M783.5 1492.5c2.174.25 3.841 1.25 5 3-2.348-.09-4.014-1.09-5-3Z"/>
    <path style="opacity:1" fill="#f37b3f" d="M1369.5 1493.5c-2.27 1.48-4.6 2.98-7 4.5-6.59 1.28-12.92 3.11-19 5.5 5.43-3.71 11.43-6.38 18-8 2.51-1.25 5.17-1.92 8-2Z"/>
    <path style="opacity:1" fill="#f5a882" d="M793.5 1497.5c1.333.33 2.667.67 4 1 .667.67 1.333 1.33 2 2-2.716.11-4.716-.89-6-3Z"/>
    <path style="opacity:1" fill="#fbba94" d="M807.5 1503.5c2.937.97 5.603 2.31 8 4-3.89.72-6.556-.61-8-4Z"/>
    <path style="opacity:1" fill="#f5a876" d="M1340.5 1503.5c-.99 1.91-2.65 2.91-5 3 1.16-1.75 2.83-2.75 5-3Z"/>
    <path style="opacity:1" fill="#feb993" d="M1335.5 1506.5c-2.58.99-5.24 1.99-8 3v-1c2.34-1.54 5-2.21 8-2Z"/>
    <path style="opacity:1" fill="#fec8a6" d="M815.5 1508.5c4.275-.75 7.609.58 10 4-3.627-.82-6.96-2.15-10-4Z"/>
    <path style="opacity:1" fill="#fde4ca" d="M1327.5 1508.5v1a81.835 81.835 0 0 0-16 6c-2.36.17-4.69.51-7 1a137 137 0 0 1 13-6.5c3.23-1.2 6.56-1.7 10-1.5Z"/>
    <path style="opacity:1" fill="#f1712e" d="M1340.5 1503.5h3c-2.48 3.08-5.81 4.91-10 5.5-1.66 1.44-2.32 3.28-2 5.5h-4c-1.2-3.51-2.87-3.35-5 .5-3.65.72-7.31 1.22-11 1.5v-1a81.835 81.835 0 0 1 16-6c2.76-1.01 5.42-2.01 8-3 2.35-.09 4.01-1.09 5-3Z"/>
    <path style="opacity:1" fill="#f39f72" d="M825.5 1512.5c5.94.63 10.94 2.96 15 7a457.32 457.32 0 0 0-15-7Z"/>
    <path style="opacity:1" fill="#ee9b77" d="M1311.5 1515.5v1c-2.98 1.95-6.32 2.95-10 3 1.19-.77 2.19-1.77 3-3 2.31-.49 4.64-.83 7-1Z"/>
    <path style="opacity:1" fill="#f3864d" d="M843.5 1519.5a73.102 73.102 0 0 0 11 3l2 3c-3.722-2.02-7.722-3.19-12-3.5-.752-.67-1.086-1.5-1-2.5Z"/>
    <path style="opacity:1" fill="#fcdfc8" d="M1295.5 1520.5c-1.67.67-3.33 1.33-5 2-2.61-.1-4.94.57-7 2 .84-1.67 2.18-2.84 4-3.5 2.65-.5 5.31-.66 8-.5Z"/>
    <path style="opacity:1" fill="#f17634" d="M1300.5 1519.5c-.66 4.17-2.99 5.5-7 4-2.02.68-4.02 1.34-6 2 .6-1.4 1.6-2.4 3-3 1.67-.67 3.33-1.33 5-2 1.42-.95 3.09-1.28 5-1Z"/>
    <path style="opacity:1" fill="#f2aa89" d="M854.5 1522.5c2.044 1.01 4.044 2.01 6 3h-4l-2-3Z"/>
    <path style="opacity:1" fill="#f09769" d="M1290.5 1522.5c-1.4.6-2.4 1.6-3 3-2.67.33-5.33.67-8 1 .68-1.68 2.02-2.34 4-2 2.06-1.43 4.39-2.1 7-2Z"/>
    <path style="opacity:1" fill="#fcbe9d" d="M863.5 1527.5v-1c9.078 1.14 17.745 3.48 26 7a138.178 138.178 0 0 1-26-6Z"/>
    <path style="opacity:1" fill="#f48c5a" d="M1279.5 1526.5c-2.78.66-5.45 1.83-8 3.5-2.65.5-5.31.66-8 .5v-1a69.108 69.108 0 0 1 16-3Z"/>
    <path style="opacity:1" fill="#fbefe0" d="M1263.5 1529.5v1c-5.59.7-10.93 2.04-16 4-1.07.93-2.4 1.27-4 1-4.05.45-8.05 1.12-12 2 1.42-1.81 3.42-2.47 6-2-.28-2.89 1.05-4.39 4-4.5 7.34-.55 14.67-1.05 22-1.5Z"/>
    <path style="opacity:1" fill="#faad84" d="M1263.5 1530.5c-4.94 2.39-10.28 3.72-16 4 5.07-1.96 10.41-3.3 16-4Z"/>
    <path style="opacity:1" fill="#ed8249" d="M863.5 1527.5a138.178 138.178 0 0 0 26 6c.333.67.667 1.33 1 2a68.381 68.381 0 0 0-17-3.5c-3.73-.91-7.063-2.41-10-4.5Z"/>
    <path style="opacity:1" fill="#f59463" d="M895.5 1535.5c2.065.02 4.065.35 6 1 2.015 1.42 4.348 2.09 7 2h3v1c-6.095.76-11.428-.57-16-4Z"/>
    <path style="opacity:1" fill="#fcc2a4" d="M901.5 1536.5c2.652-.09 4.985.58 7 2-2.652.09-4.985-.58-7-2Z"/>
    <path style="opacity:1" fill="#ed8d5a" d="M1243.5 1535.5c-4.66 3.43-9.99 4.76-16 4v-1c1.6.27 2.93-.07 4-1 3.95-.88 7.95-1.55 12-2Z"/>
    <path style="opacity:1" fill="#fdcaaf" d="M1227.5 1538.5v1c-4.34.16-8.34 1.16-12 3-5.36-.03-10.7.31-16 1a349.88 349.88 0 0 1 28-5Z"/>
    <path style="opacity:1" fill="#ffe9d5" d="M911.5 1538.5c10.799.52 21.466 2.02 32 4.5 1.566.61 2.9 1.44 4 2.5h-4a326.286 326.286 0 0 0-27-5c-1.915.28-3.581-.05-5-1v-1Z"/>
    <path style="opacity:1" fill="#ea8452" d="M1227.5 1539.5c-3.66 1.84-7.66 2.84-12 3 3.66-1.84 7.66-2.84 12-3Z"/>
    <path style="opacity:1" fill="#f69965" d="M916.5 1540.5a326.286 326.286 0 0 1 27 5v1c-9.418-.75-18.418-2.75-27-6Z"/>
    <path style="opacity:1" fill="#f08d58" d="M1215.5 1542.5c-7 2.42-14.34 3.42-22 3 2-.67 4-1.33 6-2 5.3-.69 10.64-1.03 16-1Z"/>
    <path style="opacity:1" fill="#fdc6aa" d="M943.5 1546.5v-1h4c6.854.64 13.521 1.64 20 3a147.07 147.07 0 0 1-24-2Z"/>
    <path style="opacity:1" fill="#fceddd" d="m1167.5 1548.5-16 3h-11c1.68-3.18 4.35-4.84 8-5 6.21 1.73 12.54 2.4 19 2Z"/>
    <path style="opacity:1" fill="#ffe4d1" d="M1199.5 1543.5c-2 .67-4 1.33-6 2-3.31.55-6.64.88-10 1a68.275 68.275 0 0 1-16 2c.65-1.23 1.82-1.89 3.5-2 9.57-.87 19.07-1.87 28.5-3Z"/>
    <path style="opacity:1" fill="#ec7e45" d="M943.5 1546.5a147.07 147.07 0 0 0 24 2c1 .67 2 1.33 3 2a407.648 407.648 0 0 0-21-1.5c-2.551 0-4.551-.84-6-2.5Z"/>
    <path style="opacity:1" fill="#f29460" d="M1183.5 1546.5c-3.53 1.94-7.53 3.11-12 3.5-6.65.83-13.31 1.33-20 1.5l16-3c5.43-.04 10.76-.7 16-2Z"/>
    <path style="opacity:1" fill="#f7c5ab" d="M967.5 1548.5c5.977.64 11.977 1.14 18 1.5.556.38.889.88 1 1.5-5.362.03-10.695-.31-16-1-1-.67-2-1.33-3-2Z"/>
    <path style="opacity:1" fill="#f29761" d="M986.5 1551.5h10c3.345 1.72 7.01 2.38 11 2h8v1h-16a100.09 100.09 0 0 1-13-3Z"/>
    <path style="opacity:1" fill="#fdc899" d="M996.5 1551.5c3.87-.31 7.54.02 11 1v1c-3.99.38-7.655-.28-11-2Z"/>
    <path style="opacity:1" fill="#fff4ec" d="M1135.5 1551.5c-6.77 1.57-13.77 2.24-21 2-33 1.08-66 1.08-99 0h-8v-1c42.67.24 85.34-.1 128-1Z"/>
    <path style="opacity:1" fill="#f28850" d="M1135.5 1551.5h12c-2.65 1.61-5.65 2.44-9 2.5-11.64 1.1-23.31 1.6-35 1.5 3.67-.67 7.33-1.33 11-2 7.23.24 14.23-.43 21-2Z"/>
    <path style="opacity:1" fill="#f7854b" d="M999.5 1554.5h16c29.33.75 58.66 1.08 88 1-12.16.67-24.5 1-37 1-22.52.06-44.85-.6-67-2Z"/>
    <path style="opacity:1" fill="#fec9aa" d="M1015.5 1554.5v-1c33 1.08 66 1.08 99 0-3.67.67-7.33 1.33-11 2-29.34.08-58.67-.25-88-1Z"/>
</svg>
